<svg id="New_Layer" data-name="New Layer" xmlns="http://www.w3.org/2000/svg" viewBox="0 0 273.76 97.79"><defs><style>.cls-1{fill:#b7a06f;}.cls-1,.cls-2,.cls-3,.cls-4,.cls-5,.cls-6,.cls-7,.cls-8{fill-rule:evenodd;}.cls-2{fill:#42473d;}.cls-3{fill:#24843f;}.cls-4{fill:#424e68;}.cls-5{fill:#e31b14;}.cls-6{fill:#fbdd56;}.cls-7{fill:#d22823;}.cls-8{fill:#3b3838;}.cls-9{fill:#afdad0;}.cls-10,.cls-11,.cls-12,.cls-9{stroke:#1d1d1b;stroke-miterlimit:10;stroke-width:0.25px;}.cls-10{fill:#c4d980;}.cls-11{fill:#fff;}.cls-12{fill:none;}</style></defs><path class="cls-1" d="M265.55,405.87h17.68V423a28,28,0,0,1-8.78,7.6,21.46,21.46,0,0,1-19.08.64,23.48,23.48,0,0,1-7.32-5.25,25.27,25.27,0,0,1-4.91-7.69,25,25,0,0,1,0-18.66,25.2,25.2,0,0,1,4.91-7.65,23.05,23.05,0,0,1,7.32-5.21,21.51,21.51,0,0,1,9-1.92,21.94,21.94,0,0,1,8.47,1.66,23.64,23.64,0,0,1,7.76,5.47l-5.79,7.06a16.2,16.2,0,0,0-5.22-3.47,15,15,0,0,0-5.16-.89,12,12,0,0,0-5.17,1.12,13.42,13.42,0,0,0-4.2,3.05,14,14,0,0,0-2.8,4.52,15.18,15.18,0,0,0-1,5.57,14.92,14.92,0,0,0,1,5.55,14.63,14.63,0,0,0,2.8,4.52,13.29,13.29,0,0,0,4.2,3.06,12,12,0,0,0,5.17,1.12,13.77,13.77,0,0,0,4.86-.89,16.53,16.53,0,0,0,4.84-2.93v-5.08h-8.57Zm0,0" transform="translate(-164.1 -372.05)"/><path class="cls-1" d="M319.34,385.54h10v46.79h-10V412.21H297.88v20.12h-9.95V385.54h9.95V403.1h21.46Zm0,0" transform="translate(-164.1 -372.05)"/><path class="cls-2" d="M263.68,404h17.69v17.15a28.25,28.25,0,0,1-8.78,7.6,21.38,21.38,0,0,1-19.08.64,23.52,23.52,0,0,1-7.33-5.25,25.46,25.46,0,0,1-4.91-7.69,24.93,24.93,0,0,1,0-18.65,25.32,25.32,0,0,1,4.91-7.66,22.91,22.91,0,0,1,7.33-5.2,21.32,21.32,0,0,1,9-1.93,21.94,21.94,0,0,1,8.47,1.66,23.78,23.78,0,0,1,7.77,5.47l-5.8,7.06a16.26,16.26,0,0,0-5.22-3.47,15,15,0,0,0-5.16-.89,12.05,12.05,0,0,0-5.17,1.13,13.5,13.5,0,0,0-4.2,3,14.07,14.07,0,0,0-2.8,4.52,15.19,15.19,0,0,0-1,5.58,14.86,14.86,0,0,0,1,5.54,14.51,14.51,0,0,0,2.8,4.52,13.41,13.41,0,0,0,4.2,3.06,12.05,12.05,0,0,0,5.17,1.13,14,14,0,0,0,4.86-.89,16.62,16.62,0,0,0,4.85-2.94v-5.08h-8.58Zm0,0" transform="translate(-164.1 -372.05)"/><path class="cls-2" d="M317.47,383.67h10v46.8h-10V410.34H296v20.13h-10v-46.8h10v17.56h21.45Zm0,0" transform="translate(-164.1 -372.05)"/><path class="cls-3" d="M216.79,434.85a2.7,2.7,0,0,0,.56-.45,20.74,20.74,0,0,0-1-2.19,9,9,0,0,0-.76.75s0,0,0,0,.05.11.08.16a11,11,0,0,1,.57,1.2c.11.28.23.54.34.82a.45.45,0,0,1,.12-.24S216.74,434.87,216.79,434.85Zm0,0" transform="translate(-164.1 -372.05)"/><path class="cls-3" d="M217.42,426l.09.17c.06.11.14.22.2.34l.49-.27c-.13-.17-.24-.36-.37-.53-.27-.4-.55-.8-.83-1.19l0,0s0,0,0,0l-.29.38C216.91,425.28,217.15,425.64,217.42,426Zm0,0" transform="translate(-164.1 -372.05)"/><path class="cls-3" d="M216.14,423.43l-.67-.68a6.12,6.12,0,0,0-.48-.41.2.2,0,0,0-.23,0s-.08.19,0,.24.19.22.29.33c.28.32.57.62.85.93l.3-.39Zm0,0" transform="translate(-164.1 -372.05)"/><path class="cls-3" d="M224.13,440.22a29.47,29.47,0,0,0-.67-3.1c-.27-1-.65-2.06-1-3.08-.05-.14-.11-.27-.17-.4q-.18-.43-.39-.87l-.16-.36-.17.14-.5.41a.75.75,0,0,1,.07.18,7.68,7.68,0,0,1,.46,1.24c.36.92.67,1.87.94,2.82s.48,1.71.65,2.58c.11.6.16,1.22.23,1.83.08.81.16,1.61.23,2.43h.84c-.06-.81-.14-1.62-.23-2.42C224.23,441.13,224.2,440.67,224.13,440.22Zm0,0" transform="translate(-164.1 -372.05)"/><path class="cls-3" d="M212.13,424.2l.5-.3s0,0,.06,0,.13,0,.16.05a1.3,1.3,0,0,1,.15.2,8.09,8.09,0,0,0,.79,1.15c.12.16.26.31.39.48l.17-.15.29-.21.16-.21-.76-1a2.42,2.42,0,0,0-.31-.33,4.16,4.16,0,0,0-.39-.32.39.39,0,0,0-.36-.08.86.86,0,0,0-.17,0,1.1,1.1,0,0,0-.15.16Zm0,0" transform="translate(-164.1 -372.05)"/><path class="cls-3" d="M214.31,430.31c.1.21.2.43.29.65a2.11,2.11,0,0,0,.16.34c.12.21.22.43.33.65l.75-.64c-.28-.5-.55-1-.82-1.52A8.58,8.58,0,0,1,214.31,430.31Zm0,0" transform="translate(-164.1 -372.05)"/><path class="cls-3" d="M208.77,426.1c-.16.06-.3.14-.46.21a.18.18,0,0,0,0,.11s0,.07,0,.11l.61-.46A.4.4,0,0,0,208.77,426.1Zm0,0" transform="translate(-164.1 -372.05)"/><path class="cls-3" d="M215.93,426.86a2.7,2.7,0,0,0-.17-.34l-.19-.27-.42.51-.16.18c.15.22.3.44.43.67s.14.23.2.35l.17-.13.47-.37c0-.09-.09-.19-.14-.29S216,427,215.93,426.86Zm0,0" transform="translate(-164.1 -372.05)"/><path class="cls-3" d="M218.82,427.12l-.07-.1c-.17.11-.34.2-.5.31a.54.54,0,0,0,.07.13,1.22,1.22,0,0,0,.3.47,1.61,1.61,0,0,1,.39.58,2.55,2.55,0,0,0,.13.29l.61-.38a4.73,4.73,0,0,0-.77-1.1A.74.74,0,0,1,218.82,427.12Zm0,0" transform="translate(-164.1 -372.05)"/><path class="cls-3" d="M214.08,429.22c.14-.12.28-.24.43-.35-.16-.27-.31-.54-.47-.8-.2.22-.4.44-.61.65l.41.72A1.26,1.26,0,0,1,214.08,429.22Zm0,0" transform="translate(-164.1 -372.05)"/><path class="cls-3" d="M210.79,428.28c-.27-.37-.52-.77-.81-1.13-.15-.18-.32-.35-.48-.53-.23.18-.46.35-.71.51.18.21.34.42.51.64a10.28,10.28,0,0,1,.65.93c.19.33.41.67.62,1q.39-.31.75-.66a2.14,2.14,0,0,0-.13-.19Zm0,0" transform="translate(-164.1 -372.05)"/><path class="cls-3" d="M218.51,433.27s0,.06.06.09l.57-.43h0c-.11-.21-.23-.42-.36-.62a1.54,1.54,0,0,1-.17-.34,5.64,5.64,0,0,0-.58-1.15c-.22.15-.43.34-.65.51.11.22.23.43.35.64C218,432.4,218.22,432.85,218.51,433.27Zm0,0" transform="translate(-164.1 -372.05)"/><path class="cls-3" d="M211.67,424.88a.24.24,0,0,1-.06-.15l-.67.64a10.24,10.24,0,0,1,.94,1.13c.21.28.44.55.64.83l.57-.61,0,0-.49-.63C212.29,425.68,212,425.28,211.67,424.88Zm0,0" transform="translate(-164.1 -372.05)"/><path class="cls-3" d="M217.12,429c-.13-.14-.08-.37-.22-.52l-.09-.11a1.54,1.54,0,0,0-.19.17.58.58,0,0,1-.17.14,2,2,0,0,0-.31.19,7.43,7.43,0,0,1,.35.69c.13.28.28.56.43.85a8,8,0,0,1,.64-.51,2.48,2.48,0,0,1-.17-.48A1,1,0,0,0,217.12,429Zm0,0" transform="translate(-164.1 -372.05)"/><path class="cls-3" d="M219,438.31c-.15-.41-.33-.82-.5-1.23s-.49-1.1-.73-1.65l-.58.51a.62.62,0,0,1-.2.1h-.08l.27.62c.35.77.67,1.55,1,2.33.08.22.16.44.22.66a15.7,15.7,0,0,1,.59,4.19V444h.92a20.57,20.57,0,0,0-.16-2.83A13.09,13.09,0,0,0,219,438.31Zm0,0" transform="translate(-164.1 -372.05)"/><path class="cls-3" d="M217.16,442a1.63,1.63,0,0,0-.08-.44,12.75,12.75,0,0,1-.31-1.42,13.37,13.37,0,0,0-.72-2.41c-.12-.29-.21-.6-.32-.9s-.18-.65-.32-.95a10,10,0,0,1-.53-1.15.32.32,0,0,0-.09-.16,2.81,2.81,0,0,1-.36-.6c-.27-.47-.52-1-.82-1.41s-.61-.95-.88-1.46a6.06,6.06,0,0,0-.35-.53l-.36-.48c-.23.2-.48.39-.73.58,0,0,0,0,0,0,.59.95,1.19,1.89,1.81,2.82a9.85,9.85,0,0,1,1,1.83,8.4,8.4,0,0,0,.42.78,1.22,1.22,0,0,1,.07.17,9.88,9.88,0,0,0,.73,1.82,4.86,4.86,0,0,1,.38,1.19,4.66,4.66,0,0,0,.26,1,1.18,1.18,0,0,1,.09.37,4.25,4.25,0,0,0,.18.86c.08.31.13.62.21.93a2.59,2.59,0,0,1,.06,1,2.06,2.06,0,0,0,0,.43.15.15,0,0,1,0,.09h.69C217.25,443.35,217.2,442.67,217.16,442Zm0,0" transform="translate(-164.1 -372.05)"/><path class="cls-3" d="M220.61,431.83l.37-.25.32-.22a1.33,1.33,0,0,0-.18-.3,3.64,3.64,0,0,0-.51-1,1.31,1.31,0,0,1-.25-.5.86.86,0,0,1-.13-.23l-.66.42.06.12C220,430.51,220.3,431.17,220.61,431.83Zm0,0" transform="translate(-164.1 -372.05)"/><path class="cls-3" d="M222,441.32a13.25,13.25,0,0,0-.64-2.77,3.38,3.38,0,0,1-.13-.42,23.06,23.06,0,0,0-1.29-3.51l-.33-.66a6.51,6.51,0,0,0-.6.43c.16.3.33.6.5.9a7.23,7.23,0,0,1,.52,1.21,3.43,3.43,0,0,0,.41,1.06,1,1,0,0,1,.07.18c.08.25.17.51.23.78a5.8,5.8,0,0,1,.37,1.46.21.21,0,0,0,0,.12,2.15,2.15,0,0,1,.14.62c0,.29,0,.59.09.87a8.41,8.41,0,0,1,.05,1.33c0,.1,0,.2,0,.31s0,.52,0,.78H222c0-.78,0-1.55.06-2.33A.88.88,0,0,0,222,441.32Zm0,0" transform="translate(-164.1 -372.05)"/><path class="cls-3" d="M221.4,374.27a4.38,4.38,0,0,1,0,.51c-.06.43-.12.87-.21,1.3l.55-.16a8.66,8.66,0,0,0,.17-1.23c0-.68.08-1.35.09-2,0-.2,0-.39,0-.59h-.52C221.46,372.81,221.42,373.54,221.4,374.27Zm0,0" transform="translate(-164.1 -372.05)"/><path class="cls-3" d="M215.29,380.25c-.1.23-.16.48-.28.71s-.23.59-.41.85a1.62,1.62,0,0,1-.4.78.27.27,0,0,0,.07.39,10.59,10.59,0,0,1,1.1-.6c.12-.29.22-.59.32-.89a10.58,10.58,0,0,0,.51-2.28c-.22.09-.45.2-.67.31-.06.17-.13.32-.19.49S215.31,380.17,215.29,380.25Zm0,0" transform="translate(-164.1 -372.05)"/><path class="cls-3" d="M223.77,375.4l.84-.19c0-.72,0-1.44,0-2.17,0-.32,0-.65-.07-1h-.83c0,.35,0,.7.07,1C223.78,373.87,223.8,374.64,223.77,375.4Zm0,0" transform="translate(-164.1 -372.05)"/><path class="cls-3" d="M216.51,373.17c-.1.42-.14.84-.2,1.25s0,.68-.08,1c-.1.62-.19,1.25-.28,1.87a1,1,0,0,1,0,.25,1.89,1.89,0,0,0-.11.47c.13-.06.25-.13.39-.18l.25-.09c0-.12,0-.23,0-.35.11-.62.2-1.25.32-1.87.18-.89.27-1.79.38-2.69,0-.25,0-.51,0-.76h-.69A3.07,3.07,0,0,1,216.51,373.17Zm0,0" transform="translate(-164.1 -372.05)"/><path class="cls-3" d="M218.78,375.54c-.07.47-.14.94-.22,1.4l.93-.33a24.45,24.45,0,0,0,.42-4.52H219c0,.29,0,.59,0,.88A14.87,14.87,0,0,1,218.78,375.54Zm0,0" transform="translate(-164.1 -372.05)"/><path class="cls-3" d="M223.51,379.82c-.25.09-.5.19-.75.26l-.17.06-.64,1.33c-.1.22-.23.45-.35.67a14,14,0,0,1-.85,1.31l0,0,1.11-.51a14.23,14.23,0,0,0,.92-1.61C223.05,380.8,223.28,380.31,223.51,379.82Zm0,0" transform="translate(-164.1 -372.05)"/><path class="cls-3" d="M219.07,384.05c.12-.27.25-.54.36-.81s.33-.82.51-1.23a7.5,7.5,0,0,0,.37-.93l-.43.14-.36.15a1.51,1.51,0,0,0-.11.32.53.53,0,0,1-.14.28,2.46,2.46,0,0,0-.3.55,10.12,10.12,0,0,1-.61,1.18q-.18.3-.33.6s0,.07.05.07a2.67,2.67,0,0,0,.42.15l.72-.35-.06,0S219.1,384.08,219.07,384.05Zm0,0" transform="translate(-164.1 -372.05)"/><path class="cls-3" d="M223.93,378.78c0-.09.07-.19.09-.28.18-.54.27-1.11.4-1.67,0-.12.05-.25.08-.37h-.06l-.78.19a12.81,12.81,0,0,1-.61,2.42C223.34,379,223.64,378.88,223.93,378.78Zm0,0" transform="translate(-164.1 -372.05)"/><path class="cls-3" d="M220,380.19l.66-.25v0c.26-.85.5-1.71.7-2.58l-.56.19c-.16.65-.33,1.29-.55,1.92C220.15,379.69,220.05,379.94,220,380.19Zm0,0" transform="translate(-164.1 -372.05)"/><path class="cls-3" d="M217.16,381.46c.34-.18.69-.34,1-.51.1-.27.21-.53.32-.8a15.18,15.18,0,0,0,.65-2.08c-.32.12-.65.23-1,.36-.23.82-.5,1.63-.8,2.43C217.33,381.06,217.25,381.27,217.16,381.46Zm0,0" transform="translate(-164.1 -372.05)"/><path class="cls-3" d="M216.73,383.46a.68.68,0,0,0,.34-.35c.12-.21.25-.42.36-.63l-1.1.66a.29.29,0,0,1-.16.07,1.45,1.45,0,0,0-.67.26c.12,0,.23.09.35.12A.8.8,0,0,0,216.73,383.46Zm0,0" transform="translate(-164.1 -372.05)"/><path class="cls-3" d="M166.78,415c.57-.42,1.14-.87,1.68-1.34.78-.67,1.57-1.34,2.38-2a1.92,1.92,0,0,0,.29-.28,15.32,15.32,0,0,0,1.78-2.45,2.65,2.65,0,0,1,.24-.4,26.16,26.16,0,0,0,1.91-3.48c.18-.41.33-.84.53-1.24a6.71,6.71,0,0,0,.51-1.31,2.5,2.5,0,0,1,.15-.38,5.32,5.32,0,0,0,.56-1.43.4.4,0,0,1,.07-.19,5.52,5.52,0,0,1,.55-1.15,1.09,1.09,0,0,0,.15-.51c0-.2.23-.32.26-.53a6.85,6.85,0,0,1,.5-1.53c0-.13.08-.26.12-.38a2.83,2.83,0,0,0,.16-.36c.08-.34.16-.69.23-1a5.53,5.53,0,0,1-.52-1.13,2.14,2.14,0,0,0-.12-.28,4.2,4.2,0,0,1-.26,1.1,1.42,1.42,0,0,0,0,.2,9.29,9.29,0,0,1-.42,1.63c-.24.75-.49,1.49-.8,2.21-.17.39-.33.78-.49,1.17s-.39,1-.57,1.51-.38,1-.52,1.53a1.3,1.3,0,0,1-.31.66s-.05.07-.06.11l-.54,1.46a7,7,0,0,1-.6,1.27,3.32,3.32,0,0,0-.56,1.07.61.61,0,0,1-.09.18c-.15.24-.3.49-.46.73a5.81,5.81,0,0,1-.91,1.31.34.34,0,0,0-.07.11,1.65,1.65,0,0,1-.4.54c-.2.24-.43.45-.64.68a7.88,7.88,0,0,1-1,1c-.08.08-.18.13-.26.21-.76.73-1.59,1.39-2.41,2.06l-.43.32-.93.59v.59h0A9,9,0,0,0,166.78,415Zm0,0" transform="translate(-164.1 -372.05)"/><path class="cls-3" d="M179.34,392a.43.43,0,0,0-.19-.34,1.3,1.3,0,0,0-.53-.28l-.08,0c.25.44.47.89.68,1.36,0,.07.06.12.08.19a2.33,2.33,0,0,0,0-.37C179.35,392.33,179.34,392.15,179.34,392Zm0,0" transform="translate(-164.1 -372.05)"/><path class="cls-3" d="M172.5,413.35c.33-.36.68-.72,1-1.09a32.42,32.42,0,0,0,2-2.69c.64-.95,1.19-1.95,1.77-2.94a4.09,4.09,0,0,0,.2-.42c.15-.31.29-.61.43-.92s.29-.61.41-.92a4.93,4.93,0,0,0,.4-.91,4.18,4.18,0,0,0,.45-1.1,1.43,1.43,0,0,1,.22-.56c0-.27.25-.47.32-.73a10,10,0,0,0,.52-1.95,1.31,1.31,0,0,1,.06-.27h0l-.06-.13a2.18,2.18,0,0,1-.16-.68,3.69,3.69,0,0,0-.08-.46c0,.08-.05.15-.06.22a9.37,9.37,0,0,1-.28.9,1.45,1.45,0,0,0-.17.57,1.92,1.92,0,0,1-.19.71,2.41,2.41,0,0,0-.24.63,1.07,1.07,0,0,1-.23.48.92.92,0,0,0-.19.35c-.28.76-.59,1.5-.92,2.24a11.32,11.32,0,0,1-.62,1.26,7.37,7.37,0,0,1-.66,1.24c-.49.94-1,1.84-1.61,2.73s-1,1.57-1.62,2.31c-.4.52-.86,1-1.3,1.46-.84.9-1.68,1.82-2.57,2.66l-.19.18h.71l.52,0C171.11,414.84,171.82,414.11,172.5,413.35Zm0,0" transform="translate(-164.1 -372.05)"/><path class="cls-3" d="M181.32,394.47c0-.11,0-.23,0-.34,0-.33,0-.67.07-1v-.67a.21.21,0,0,0-.17-.17c-.07,0-.2.06-.21.13s0,.31-.07.46c0,.52-.09,1-.18,1.55s-.17.78-.26,1.16l.3,1c.09-.34.18-.67.25-1S181.25,394.84,181.32,394.47Zm0,0" transform="translate(-164.1 -372.05)"/><path class="cls-3" d="M166.84,418.49a7.29,7.29,0,0,0,1-.66c.54-.41,1.05-.85,1.54-1.3l-1.4,0-.77.65a11.83,11.83,0,0,1-1.8,1.14v.48l.85,0Zm0,0" transform="translate(-164.1 -372.05)"/><path class="cls-3" d="M169.65,409.43a13.68,13.68,0,0,0,1.81-2.59l.63-1.27c.41-.86.82-1.74,1.24-2.61a21.93,21.93,0,0,0,1.3-3s0-.05,0-.06c.37-1,.75-2,1.1-3a21.13,21.13,0,0,0,1-3.76c.08-.53.19-1.06.29-1.59a.36.36,0,0,1,0-.11c-.09-.18-.18-.36-.28-.53a3.38,3.38,0,0,0-.45,0c-.14,0-.2.06-.2.2a9,9,0,0,1-.26,1.72,9.62,9.62,0,0,1-.43,1.76.5.5,0,0,0-.05.13,15.2,15.2,0,0,1-.6,2,11.85,11.85,0,0,1-.6,1.42,4,4,0,0,0-.17.37c-.11.34-.27.67-.4,1a3.21,3.21,0,0,1-.39.84.44.44,0,0,0-.07.19,10.54,10.54,0,0,1-.57,1.29c-.38.79-.78,1.56-1.14,2.36s-.77,1.62-1.19,2.42c-.12.21-.24.43-.38.64a17,17,0,0,1-2.94,3.4c-.29.25-.58.49-.86.75a8.42,8.42,0,0,1-.72.62v1.16a27.13,27.13,0,0,0,4.23-3.75Zm0,0" transform="translate(-164.1 -372.05)"/><path class="cls-3" d="M167.49,407.56a11.25,11.25,0,0,1,.93-1.25,13.3,13.3,0,0,0,1.42-2.27c.16-.3.32-.58.5-.87a8.65,8.65,0,0,0,.54-.93,12.42,12.42,0,0,1,.55-1.23.47.47,0,0,0,.06-.19,4.1,4.1,0,0,1,.23-.7c.19-.55.4-1.09.56-1.65a17.26,17.26,0,0,1,.56-1.72,5.25,5.25,0,0,0,.18-.65c.07-.3.11-.62.21-.92s.24-.81.34-1.23c.05-.24.11-.48.17-.72.12-.48.25-1,.34-1.44a5.23,5.23,0,0,1,.22-1.18.61.61,0,0,0,0-.14.4.4,0,0,0-.23-.38l-.48-.21a.14.14,0,0,0-.12,0,.37.37,0,0,0-.08.18c-.1.53-.19,1.06-.29,1.59a10.75,10.75,0,0,1-.3,1.18,17,17,0,0,0-.54,2,1.82,1.82,0,0,1-.11.46c-.34,1.13-.68,2.27-1,3.42a10.43,10.43,0,0,1-.75,2.09,8.26,8.26,0,0,0-.34.87,1.51,1.51,0,0,1-.09.18,10.06,10.06,0,0,0-.94,1.85,4.6,4.6,0,0,1-.7,1.14,5.53,5.53,0,0,0-.65.93,1.27,1.27,0,0,1-.23.34,4.63,4.63,0,0,0-.57.75c-.18.27-.41.53-.6.8a2.55,2.55,0,0,1-.75.75l-.15.1v1a19.76,19.76,0,0,0,1.78-1.64A1.08,1.08,0,0,0,167.49,407.56Zm0,0" transform="translate(-164.1 -372.05)"/><path class="cls-3" d="M230.86,420.87c.3,0,.62-.06.93-.11a17,17,0,0,0,2.32-.45c.59-.18,1.2-.35,1.81-.51a7.76,7.76,0,0,0,.85-.3h-.49a9.45,9.45,0,0,0-1.59.11c-.35.06-.7.09-1.05.14a2.26,2.26,0,0,0-.73.2l-.14.05a7,7,0,0,0-1.75.5c-.32.09-.63.21-.94.32l-.14.05A3.16,3.16,0,0,0,230.86,420.87Zm0,0" transform="translate(-164.1 -372.05)"/><path class="cls-3" d="M237.37,418.83v-.48c-.35.18-.71.34-1.08.5Zm0,0" transform="translate(-164.1 -372.05)"/><path class="cls-3" d="M229.76,420.21c-.15-.06-.24-.25-.44-.65a.73.73,0,0,1-.07-.19.66.66,0,0,1,0-.14l.9-.27c.45-.15.89-.31,1.34-.45a7.37,7.37,0,0,0,1.68-.67l.49-.22,1-.46h-.09c-.69.1-1.38.19-2,.34a1.8,1.8,0,0,1-.43.14,1.8,1.8,0,0,0-.69.22.63.63,0,0,1-.33.09,2.16,2.16,0,0,0-.66.14c-.28.08-.56.16-.84.22a1.84,1.84,0,0,0-.25.09c-.34.1-.66.22-1,.33a10.12,10.12,0,0,0,.85,1.67Zm0,0" transform="translate(-164.1 -372.05)"/><path class="cls-3" d="M236,415.92l-.09.05,1.51-.19v-.59a9.4,9.4,0,0,1-1,.51A4.23,4.23,0,0,0,236,415.92Zm0,0" transform="translate(-164.1 -372.05)"/><path class="cls-3" d="M237.16,408.77a3.17,3.17,0,0,1-1,.82c-.4.2-.76.47-1.14.71s-.57.44-.87.64l-1.7,1.1a1,1,0,0,1-.23.13,2.39,2.39,0,0,0-.64.36,8.18,8.18,0,0,0-.79.51,4,4,0,0,1-.92.4l-.24.12a4.89,4.89,0,0,1-.76.27c-.33.06-.63.22-1,.27a1.84,1.84,0,0,1-.89.23.3.3,0,0,0-.27.39l0,.13c.22.49.38,1,.59,1.5a.86.86,0,0,0,.72.61.67.67,0,0,0,.52,0c.39-.08.8-.16,1.19-.22a5,5,0,0,0,.92-.23c.42-.15.84-.31,1.27-.45a18.91,18.91,0,0,0,3.51-1.69c.63-.38,1.26-.78,1.86-1.21V412c-.49.37-1,.71-1.49,1a27.06,27.06,0,0,1-2.38,1.41,28.49,28.49,0,0,1-2.84,1.21,13.16,13.16,0,0,1-2.47.63.27.27,0,0,1-.33-.16c-.1-.25-.19-.5-.28-.75,0,0,0-.08,0-.16a10.72,10.72,0,0,0,1.37-.49,14.14,14.14,0,0,0,2.68-1.52c.21-.13.41-.27.63-.39s.35-.21.51-.31c.58-.35,1.14-.72,1.73-1.05.84-.47,1.63-1,2.42-1.58l.44-.32v-1A.55.55,0,0,0,237.16,408.77Zm0,0" transform="translate(-164.1 -372.05)"/><path class="cls-4" d="M192,374.9c.31.24.61.48.94.7a24.67,24.67,0,0,0,2.27,1.35c.8.43,1.63.78,2.45,1.14a2.48,2.48,0,0,0,.35.13l.75.27c.25.08.5.17.76.23a30.28,30.28,0,0,0,1.65.5,1.22,1.22,0,0,1,.45.13c.22,0,.4.16.6.19a7,7,0,0,0,1.57.25l.21,0,1.41.21c.4.06.8.12,1.21.16s.6.06.9.09h.27l.79,0,.52-.05a.18.18,0,0,0,.13-.15c0-.05-.07-.15-.12-.15h-.36c-.41,0-.82,0-1.22,0-.68-.05-1.37-.2-2.05-.27l-.16,0-.52-.1c-.24-.05-.49-.07-.72-.14a1.09,1.09,0,0,0-.47-.09,1.08,1.08,0,0,1-.56-.1,1.91,1.91,0,0,0-.51-.13.8.8,0,0,1-.39-.14,1,1,0,0,0-.29-.13c-.62-.15-1.23-.33-1.82-.53-.36-.12-.72-.24-1.05-.38a6.39,6.39,0,0,1-1-.41c-.77-.31-1.52-.66-2.27-1s-1.31-.68-1.95-1.08c-.43-.27-.84-.59-1.25-.9-.77-.58-1.55-1.16-2.29-1.78l-.6-.53h-1c.39.37.79.72,1.2,1.06C190.49,373.74,191.24,374.34,192,374.9Zm0,0" transform="translate(-164.1 -372.05)"/><path class="cls-4" d="M193.23,373.47l.25.21a11.38,11.38,0,0,0,2.06,1.19,2.53,2.53,0,0,1,.33.16,20.17,20.17,0,0,0,2.88,1.21l1,.31a5.56,5.56,0,0,0,1.08.3.84.84,0,0,1,.3.08,4,4,0,0,0,1.17.31l.15.05a4.12,4.12,0,0,1,.95.33.83.83,0,0,0,.41.07c.16,0,.27.16.44.17a4.92,4.92,0,0,1,1.24.27c.1,0,.21,0,.31.06a1.71,1.71,0,0,0,.3.09c.3.05.6.08.89.11l1.52.17a1.53,1.53,0,0,0,.37,0l.42-.05a.32.32,0,0,0,.25-.17,1.14,1.14,0,0,0,.18-.44c.07-.32.13-.66.17-1a2.32,2.32,0,0,0,0-.79c0-.11-.07-.16-.18-.15a7.9,7.9,0,0,1-1.37-.06,8.64,8.64,0,0,1-1.42-.19l-.1,0a12.35,12.35,0,0,1-1.61-.3A9.17,9.17,0,0,1,204,375l-.31-.1a7.32,7.32,0,0,1-.8-.23,2.24,2.24,0,0,1-.7-.24.47.47,0,0,0-.14,0,9.32,9.32,0,0,1-1.06-.33c-.65-.24-1.29-.49-1.94-.7s-1.34-.47-2-.74a5.22,5.22,0,0,1-.54-.24l-.61-.34h-1.48c.12.09.25.19.38.27a9.81,9.81,0,0,0,2.17,1.2l1,.4,2.15.76a20.07,20.07,0,0,0,2.47.76l0,0c.81.2,1.6.43,2.41.62a17.24,17.24,0,0,0,3,.49l1.27.1a.21.21,0,0,1,.2.25,5.22,5.22,0,0,1-.15.88s0,0,0,.05a.91.91,0,0,1-.14.07.75.75,0,0,1-.21,0,7.44,7.44,0,0,0-1.15-.18,3.39,3.39,0,0,1-.89-.11h-.16a8.15,8.15,0,0,1-1.3-.19c-.61-.13-1.21-.27-1.8-.45-.32-.11-.64-.2-1-.28s-.81-.23-1.23-.33-.81-.21-1.23-.28a1.1,1.1,0,0,1-.55-.19s-.06,0-.09,0l-1.19-.3a6.4,6.4,0,0,1-1-.36,2.72,2.72,0,0,0-.88-.36.32.32,0,0,1-.15-.06c-.21-.09-.42-.19-.62-.3a4.74,4.74,0,0,1-1.1-.61.19.19,0,0,0-.1-.05,1.38,1.38,0,0,1-.45-.27c-.2-.14-.4-.3-.59-.45a5.8,5.8,0,0,1-.84-.72l-.19-.19-.17-.14h-.65C192.29,372.53,192.77,373,193.23,373.47Zm0,0" transform="translate(-164.1 -372.05)"/><path class="cls-4" d="M200.59,372.73a7.31,7.31,0,0,1,1,.33.28.28,0,0,0,.15,0,2.62,2.62,0,0,1,.57.12c.45.1.89.23,1.34.31s.93.17,1.4.29a2.34,2.34,0,0,0,.52.08c.25,0,.5.05.74.09a8.19,8.19,0,0,0,1,.17l.57.08c.39.05.77.11,1.16.15a3.69,3.69,0,0,1,.94.07.4.4,0,0,0,.11,0,.32.32,0,0,0,.28-.22l.14-.39a.11.11,0,0,0-.05-.09l-.14-.05-1.27-.1a7.33,7.33,0,0,1-.94-.13,11.15,11.15,0,0,0-1.62-.26,2.08,2.08,0,0,1-.36-.05c-.92-.18-1.84-.35-2.77-.5a9.05,9.05,0,0,1-1.69-.41,6.32,6.32,0,0,0-.62-.18h-1.92l.71.31A7.58,7.58,0,0,0,200.59,372.73Zm0,0" transform="translate(-164.1 -372.05)"/><path class="cls-4" d="M200.79,444a7.12,7.12,0,0,0-1.53-.59,4.1,4.1,0,0,1-.95-.44,4,4,0,0,0-.78-.44.94.94,0,0,1-.28-.15,2.67,2.67,0,0,0-.63-.37c-.23-.13-.45-.28-.68-.4a2.23,2.23,0,0,1-.65-.53.92.92,0,0,0-.27-.25,2.63,2.63,0,0,1-.71-.7c-.2-.3-.43-.55-.65-.83s-.39-.41-.58-.62l-1-1.25a.74.74,0,0,1-.12-.17,2.36,2.36,0,0,0-.34-.47c-.15-.2-.29-.41-.45-.59a3.11,3.11,0,0,1-.4-.68,1.74,1.74,0,0,1-.11-.18,5.18,5.18,0,0,1-.28-.58c-.08-.25-.23-.47-.29-.73a1.51,1.51,0,0,1-.25-.69.24.24,0,0,0-.32-.18l-.1,0c-.37.2-.76.37-1.12.58a.64.64,0,0,0-.42.61.55.55,0,0,0,0,.4c.1.3.19.61.28.92a4.5,4.5,0,0,0,.25.7c.16.32.3.63.46,1a15,15,0,0,0,1.61,2.6,20.2,20.2,0,0,0,2.54,2.84c.48.44,1,.86,1.46,1.25H196a13,13,0,0,1-2.29-1.69l-.65-.61a14.92,14.92,0,0,1-1.48-1.6c-.45-.57-.9-1.14-1.29-1.75s-.83-1.39-1.19-2.12a11.59,11.59,0,0,1-.7-1.89.21.21,0,0,1,.1-.27l.56-.29a.37.37,0,0,1,.14,0,5.82,5.82,0,0,0,.5,1,11,11,0,0,0,1.41,2,4,4,0,0,1,.35.46l.29.38c.32.42.65.83,1,1.26.44.61.94,1.19,1.44,1.76a12.31,12.31,0,0,0,1.72,1.58,1.65,1.65,0,0,0,.31.2,8.39,8.39,0,0,1,1,.62,11.14,11.14,0,0,0,1.9.93H201l-.09,0Zm0,0" transform="translate(-164.1 -372.05)"/><path class="cls-4" d="M190.54,442.14a9.45,9.45,0,0,1-1-1.42c-.06-.1-.14-.2-.21-.3-.35-.54-.7-1.07-1-1.63-.16-.3-.31-.59-.49-.87a1.41,1.41,0,0,1-.19-.39,1.43,1.43,0,0,0-.23-.52.54.54,0,0,1-.09-.24,1.64,1.64,0,0,0-.17-.5,7.69,7.69,0,0,1-.37-1c-.05-.18-.12-.37-.18-.54,0,0-.06,0-.07,0a7.73,7.73,0,0,0-1.54,1,2.32,2.32,0,0,0,0,1.14c0,.25.1.49.16.73a12.05,12.05,0,0,0,.54,1.77c.19.46.37.92.55,1.38a10.48,10.48,0,0,0,.47,1,12.91,12.91,0,0,0,.79,1.19,6.06,6.06,0,0,0,.6.74c.14.15.28.3.43.44h1c-.34-.32-.7-.64-1-1a11,11,0,0,1-1.67-2.38,6.11,6.11,0,0,1-.26-.64c-.18-.44-.35-.88-.52-1.33-.08-.2-.14-.4-.21-.6a15.26,15.26,0,0,1-.4-1.65c-.14-.6-.15-.57.41-.93a.34.34,0,0,1,.15-.06s.06,0,.1,0c.09.22.19.45.29.67s.32.67.45,1a7.7,7.7,0,0,0,.67,1.27c.08.11.14.24.22.36q.59,1,1.23,2c.13.19.26.38.37.58a6.52,6.52,0,0,0,.89,1.18c.38.42.77.83,1.19,1.21l.32.31h.66c-.57-.5-1.11-1-1.64-1.57C190.73,442.35,190.63,442.25,190.54,442.14Zm0,0" transform="translate(-164.1 -372.05)"/><path class="cls-4" d="M215,427l.16-.18.41-.51,1.09-1.35.29-.37-.63.42-.2.12c-.77.61-1.6,1.16-2.34,1.8-.44.39-.84.81-1.26,1.22l-.39.37a.3.3,0,0,1-.23,0l-.46.45-.12.11c-.24.24-.49.45-.75.67a19.12,19.12,0,0,1-3.44,2.23c-.36.19-.75.33-1.14.49l-2.4.94c-.36.14-.73.25-1.09.38a27,27,0,0,1-3,.72c-1.08.24-1,.28-1.68-.75a1.42,1.42,0,0,1-.12-.25.67.67,0,0,1,0-.2c.41-.18.83-.34,1.23-.52.62-.28,1.21-.59,1.84-.84a11,11,0,0,0,2.28-1.2c.21-.15.44-.26.66-.39,1.21-.7,2.41-1.44,3.57-2.23.34-.24.69-.46,1-.67l.44-.28.71-.5c.35-.26.67-.55,1-.84l.46-.42.66-.64.53-.53.54-.57a.93.93,0,0,0,.14-.14c1-1,1.93-2,2.93-3a3.19,3.19,0,0,0,.37-.44,20.64,20.64,0,0,0,2.15-3.73c.08-.21.18-.41.28-.61a33.94,33.94,0,0,0,2.18-5.21c.19-.6.36-1.22.57-1.82a10.72,10.72,0,0,0,.54-1.94,2.14,2.14,0,0,1,.15-.55,7,7,0,0,0,.57-2.11,1.29,1.29,0,0,1,.08-.28,8.32,8.32,0,0,1,.61-1.71,1.66,1.66,0,0,0,.14-.74c0-.29.28-.49.3-.8a9.13,9.13,0,0,1,.47-2.24c.05-.18.07-.37.12-.54s.14-.36.17-.55c.07-.55.13-1.08.19-1.62.11-.92.21-1.84.31-2.76a3,3,0,0,0,0-.67c0-.26-.07-.51-.09-.76a.65.65,0,0,0-.31-.46,2.06,2.06,0,0,0-.8-.31c-.59-.11-1.18-.24-1.79-.31a4.22,4.22,0,0,0-1.42.06c-.2,0-.28.12-.27.31a12.06,12.06,0,0,1-.11,2.48,12.93,12.93,0,0,1-.35,2.56.63.63,0,0,0,0,.19,20.92,20.92,0,0,1-.57,2.92,15.8,15.8,0,0,1-.63,2.1,3.92,3.92,0,0,0-.18.55c-.11.5-.29,1-.42,1.46a4.21,4.21,0,0,1-.43,1.25.84.84,0,0,0-.08.27,17.86,17.86,0,0,1-.61,1.92c-.43,1.17-.87,2.33-1.27,3.51s-.84,2.41-1.32,3.59a10.45,10.45,0,0,1-.44,1,23.88,23.88,0,0,1-3.66,5.25c-.37.4-.75.78-1.12,1.18a25.86,25.86,0,0,1-2.88,2.66c-1,.81-2.05,1.62-3.16,2.33a37.1,37.1,0,0,1-3.85,2.15,19,19,0,0,1-3.4,1.26.4.4,0,0,1-.5-.18c-.18-.33-.35-.68-.51-1,0-.05,0-.13,0-.25a13.16,13.16,0,0,0,1.86-.89,20.55,20.55,0,0,0,3.59-2.56c.28-.22.53-.44.82-.64s.46-.34.69-.52c.76-.58,1.5-1.19,2.29-1.74,1.12-.8,2.16-1.7,3.19-2.6a23.93,23.93,0,0,0,2.84-3.11,2.8,2.8,0,0,0,.36-.56,13.88,13.88,0,0,1,1.13-1.89,19.82,19.82,0,0,0,1.68-3.43c.17-.44.37-.88.57-1.32a12.5,12.5,0,0,0,.63-1.4,12.79,12.79,0,0,1,.6-1.81.66.66,0,0,0,0-.28,5.1,5.1,0,0,1,.22-1c.19-.81.41-1.61.55-2.42s.3-1.69.53-2.53a7.4,7.4,0,0,0,.17-.94,11.6,11.6,0,0,1,.16-1.32,18.06,18.06,0,0,0,.3-1.79c0-.35.08-.7.13-1,.1-.7.22-1.39.28-2.09a11.27,11.27,0,0,1,.08-1.54,15.17,15.17,0,0,0-1.42.94c0,.2,0,.39,0,.59a13.91,13.91,0,0,1-.24,1.7,20.56,20.56,0,0,0-.47,2.93c0,.22,0,.45-.08.67-.33,1.65-.64,3.32-.91,5a16.21,16.21,0,0,1-.76,3.07,12.84,12.84,0,0,0-.36,1.29,1,1,0,0,1-.09.26,15.41,15.41,0,0,0-1.06,2.76,6.55,6.55,0,0,1-.81,1.71,9,9,0,0,0-.79,1.43,1.62,1.62,0,0,1-.27.5,5.8,5.8,0,0,0-.68,1.15c-.23.42-.5.82-.73,1.23a3.89,3.89,0,0,1-1,1.18,2.62,2.62,0,0,0-.46.48,5,5,0,0,1-1.24,1.3c-.54.36-1,.78-1.51,1.18s-.73.71-1.13,1l-2.23,1.79a1.79,1.79,0,0,1-.31.22,4,4,0,0,0-.86.6c-.35.27-.72.53-1.05.83a6.6,6.6,0,0,1-1.23.72l-.33.2a8.86,8.86,0,0,1-1,.49c-.45.15-.86.41-1.33.53a2.49,2.49,0,0,1-1.23.45.44.44,0,0,0-.32.59.49.49,0,0,0,.07.19c.37.66.68,1.37,1.05,2a1.2,1.2,0,0,0,1.1.75,1,1,0,0,0,.74,0c.55-.17,1.1-.34,1.65-.49a6.12,6.12,0,0,0,1.26-.46c.57-.27,1.15-.56,1.72-.82a27.37,27.37,0,0,0,4.73-2.92,36.66,36.66,0,0,0,5.13-4.59,28.09,28.09,0,0,0,2.74-3.32,19.59,19.59,0,0,0,2.18-3.93c.24-.62.48-1.25.7-1.88.46-1.29.9-2.59,1.37-3.88a33.18,33.18,0,0,0,1.39-4.48l0-.09c.38-1.45.79-2.9,1.13-4.36a30.73,30.73,0,0,0,.91-5.48c0-.76.11-1.53.17-2.29,0-.26.17-.37.46-.36a9.7,9.7,0,0,1,1.6.26.18.18,0,0,1,.07,0c.05.08.13.16.13.24a1,1,0,0,1,0,.37,16,16,0,0,0-.31,2.08,6.29,6.29,0,0,1-.2,1.61.89.89,0,0,0,0,.28A14.57,14.57,0,0,1,223,398c-.23,1.09-.47,2.18-.81,3.25-.19.57-.35,1.15-.51,1.74-.2.74-.42,1.47-.58,2.22s-.39,1.47-.51,2.23a1.94,1.94,0,0,1-.35,1,.44.44,0,0,0-.07.17c-.18.71-.36,1.42-.53,2.14a10.91,10.91,0,0,1-.67,1.89,5.08,5.08,0,0,0-.63,1.59,1,1,0,0,1-.11.27c-.17.37-.34.76-.54,1.11a9.25,9.25,0,0,1-1.1,2,.35.35,0,0,0-.09.17,2.47,2.47,0,0,1-.47.82c-.26.36-.55.7-.81,1.07a11.89,11.89,0,0,1-1.32,1.52,3.55,3.55,0,0,0-.34.33c-1,1.15-2,2.2-3.1,3.26a6.88,6.88,0,0,1-.55.53l-.89.7-.61.46a10.76,10.76,0,0,1-1.07.68c-.19.11-.37.25-.56.37a33.89,33.89,0,0,1-2.94,1.79c-.54.29-1.07.56-1.58.89a2.25,2.25,0,0,1-.68.33,2.54,2.54,0,0,0-.95.42,1,1,0,0,1-.44.17,3.24,3.24,0,0,0-.91.3,15.76,15.76,0,0,1-1.89.68c-.34.09-.66.21-1,.32,0,.07,0,.1,0,.12a14.75,14.75,0,0,0,1.83,2.79,4.43,4.43,0,0,0,2.08,0c.44-.1.88-.19,1.31-.3a21.54,21.54,0,0,0,3.21-1l2.49-1a14.24,14.24,0,0,0,1.71-.84,25.33,25.33,0,0,0,2.16-1.44l.2-.14c.25-.18.5-.37.73-.57s.28-.24.41-.37c.34-.32.67-.65,1-1s.41-.43.61-.66Zm0,0" transform="translate(-164.1 -372.05)"/><path class="cls-4" d="M216.71,389.38a1.71,1.71,0,0,0-.3-.09.19.19,0,0,0-.15.07.62.62,0,0,0-.09.27.17.17,0,0,1,0,.07l.32-.2Zm0,0" transform="translate(-164.1 -372.05)"/><path class="cls-4" d="M215.74,424.58l1.65-1.23a.9.9,0,0,0,.23-.2,4.29,4.29,0,0,1,.92-.73c.36-.47.73-.94,1.06-1.43a44.71,44.71,0,0,0,2.45-4.12c.77-1.43,1.4-2.93,2.08-4.43a6.56,6.56,0,0,0,.23-.62c.16-.45.31-.91.46-1.36s.31-.91.44-1.36a5.44,5.44,0,0,0,.43-1.35,5.74,5.74,0,0,0,.46-1.63,2.21,2.21,0,0,1,.24-.82,9.07,9.07,0,0,1,.34-1.08,14.25,14.25,0,0,0,.45-2.84,1.25,1.25,0,0,1,0-.38c.13-.86.25-1.71.38-2.55s.21-1.45.3-2.19c.07-.54.1-1.08.15-1.62a3.77,3.77,0,0,0,0-.47c0-.48,0-1-.05-1.44,0-.31-.06-.63-.09-1,0-.09-.17-.21-.28-.22s-.27.13-.27.22l0,.66c0,.73,0,1.48,0,2.21-.09,1.24-.35,2.46-.48,3.7a1.64,1.64,0,0,1-.07.28c-.07.31-.12.62-.18.94s-.13.89-.26,1.31a2.12,2.12,0,0,0-.15.85,2.41,2.41,0,0,1-.18,1,4.07,4.07,0,0,0-.24.91,1.46,1.46,0,0,1-.26.72,1.91,1.91,0,0,0-.22.53c-.27,1.11-.61,2.21-1,3.3-.21.63-.42,1.28-.68,1.89a11.17,11.17,0,0,1-.76,1.86c-.55,1.4-1.19,2.75-1.86,4.1s-1.24,2.38-1.95,3.51c-.49.79-1.07,1.52-1.62,2.26l-1.25,1.65-.3.39c-.34.45-.7.91-1.06,1.36-.06.06-.12.14-.17.2C215,425.13,215.37,424.86,215.74,424.58Zm0,0" transform="translate(-164.1 -372.05)"/><path class="cls-4" d="M201.92,391l0,0a12.54,12.54,0,0,0-1.11-2l-.34.34-.12.11a1.72,1.72,0,0,1,.31.54.17.17,0,0,0,.06.12,6.59,6.59,0,0,1,.75,1.38l.06.1c.12-.15.23-.31.36-.45S201.9,391,201.92,391Zm0,0" transform="translate(-164.1 -372.05)"/><path class="cls-4" d="M203.14,389.92c.24-.18.47-.38.7-.56-.32-.56-.66-1.11-1-1.65-.09-.14-.19-.27-.3-.42l-.56.46-.11.1c.2.28.39.55.58.84S202.92,389.51,203.14,389.92Zm0,0" transform="translate(-164.1 -372.05)"/><path class="cls-4" d="M200.4,388.35a1.27,1.27,0,0,0-.23-.28c-.72-.71-1.42-1.43-2.11-2.17-.49-.5-1-1-1.5-1.47a8,8,0,0,0-1.47-1.11l-.72-.45c-.8-.56-1.62-1.06-2.46-1.54a4.12,4.12,0,0,1-.45-.27,7.56,7.56,0,0,0-1.57-.82c-.42-.17-.83-.38-1.25-.57s-.57-.23-.85-.35a.56.56,0,0,1,0-.13,1,1,0,0,1,.08-.18c.44-.71.41-.68,1.15-.52a20.19,20.19,0,0,1,2,.49l.74.26,1.66.65c.26.11.53.2.78.33a12.7,12.7,0,0,1,3,2.07c.66.64,1.28,1.33,1.87,2,.77.93,1.5,1.9,2.22,2.86l.11.13,0,0,.62-.52-.14-.18c-.7-1-1.43-1.88-2.18-2.8a23.91,23.91,0,0,0-1.88-2A9.31,9.31,0,0,0,197,381a16.48,16.48,0,0,0-1.48-1,11.8,11.8,0,0,0-1.18-.59l-1.71-.69a16.27,16.27,0,0,0-2.19-.66c-.3-.08-.6-.13-.91-.21a3.1,3.1,0,0,0-1.42,0,9.33,9.33,0,0,0-1.25,1.91s0,0,0,.09l.67.22a9.21,9.21,0,0,1,1.3.47,2.15,2.15,0,0,0,.62.2.69.69,0,0,1,.31.12,1.65,1.65,0,0,0,.65.29,1.71,1.71,0,0,1,.47.23c.35.22.72.42,1.09.61a22.38,22.38,0,0,1,2,1.23l.38.26a11.51,11.51,0,0,1,1.76,1.26c.13.11.26.24.38.36.73.73,1.47,1.45,2.13,2.24.07.08.16.15.24.23a9.06,9.06,0,0,1,.9,1.05,2.56,2.56,0,0,0,.2.26,3,3,0,0,1,.24-.28C200.26,388.49,200.34,388.42,200.4,388.35Zm0,0" transform="translate(-164.1 -372.05)"/><path class="cls-4" d="M188.68,385.49c.22.21.48.38.72.57a3,3,0,0,0,.59.42,1.07,1.07,0,0,1,.22.15l1.54,1.23c.28.22.5.49.77.71s.67.56,1,.81a3.14,3.14,0,0,1,.85.89,1.93,1.93,0,0,0,.31.33,2.59,2.59,0,0,1,.66.81c.16.28.34.56.5.85a4.84,4.84,0,0,0,.47.79,1.63,1.63,0,0,1,.19.34,4.69,4.69,0,0,0,.54,1,4.39,4.39,0,0,1,.55,1.18,10.65,10.65,0,0,0,.73,1.9,1.34,1.34,0,0,1,.07.18,8.79,8.79,0,0,0,.24.88,11,11,0,0,1,.53,2.1c.18,1.15.39,2.29.62,3.43a2.32,2.32,0,0,1,.06.46,15,15,0,0,0,.32,2,9,9,0,0,1,.16,1.16c0,.53.08,1.05.13,1.58a1.21,1.21,0,0,0,0,.18.13.13,0,0,0,.11.05,4,4,0,0,0,.49-.17.39.39,0,0,0,.26-.35.29.29,0,0,0,0-.13,5.13,5.13,0,0,1-.09-1.18c0-.48-.12-.95-.18-1.43,0-.24-.07-.47-.1-.71a8.3,8.3,0,0,0-.2-1.23c-.06-.31-.07-.61-.11-.91a4.64,4.64,0,0,0-.11-.65c-.16-.57-.26-1.15-.37-1.73s-.25-1.11-.37-1.66a4.07,4.07,0,0,1-.16-.71.58.58,0,0,0,0-.19,9.13,9.13,0,0,1-.41-1.25,9.09,9.09,0,0,0-.43-1c-.14-.3-.28-.6-.4-.9A14.19,14.19,0,0,0,197.3,393a11.47,11.47,0,0,1-.78-1.3,1.62,1.62,0,0,0-.25-.39,16.45,16.45,0,0,0-2-2.14c-.71-.61-1.42-1.23-2.19-1.78-.53-.38-1-.8-1.56-1.2-.16-.12-.31-.25-.48-.36a4.8,4.8,0,0,1-.56-.45,20.82,20.82,0,0,0-1.78-1.35l.75,1.31A1.52,1.52,0,0,0,188.68,385.49Zm0,0" transform="translate(-164.1 -372.05)"/><path class="cls-4" d="M204.45,390.45l-.48.43-.22.19,0,.05c.3.6.6,1.22.87,1.85l.49-.43.24-.2c-.28-.61-.56-1.21-.87-1.8C204.48,390.51,204.47,390.47,204.45,390.45Zm0,0" transform="translate(-164.1 -372.05)"/><path class="cls-4" d="M206.84,396.3h0a3.47,3.47,0,0,1-.16-.41c-.08-.32-.2-.62-.3-.94s-.21-.63-.32-.93c-.05-.14-.1-.29-.17-.44a.09.09,0,0,0,0-.06l-.1.08-.64.53c.18.35.27.73.42,1.09a13.29,13.29,0,0,1,.46,1.3,4.56,4.56,0,0,1,.14.44C206.4,396.73,206.61,396.5,206.84,396.3Zm0,0" transform="translate(-164.1 -372.05)"/><path class="cls-4" d="M184.91,383.44a.32.32,0,0,0,.22.41,1.78,1.78,0,0,1,.86.3l.2.07c-.3-.5-.61-1-.93-1.48l-.29.58A.45.45,0,0,0,184.91,383.44Zm0,0" transform="translate(-164.1 -372.05)"/><path class="cls-4" d="M202.34,392.08a1.06,1.06,0,0,0-.29.22.66.66,0,0,0-.07.25.13.13,0,0,0,0,.09,10.71,10.71,0,0,0,.9,1.27.39.39,0,0,0,.4.15c-.25-.69-.55-1.38-.86-2Zm0,0" transform="translate(-164.1 -372.05)"/><path class="cls-4" d="M202.7,394.37c0,.11.07.23.09.34.12.49.25,1,.37,1.46a.35.35,0,0,0,.05.13,1.16,1.16,0,0,1,.24.66c.09.52.23,1,.35,1.53s.27,1,.4,1.53.22.8.35,1.2a20.77,20.77,0,0,1,.56,2.23,8.89,8.89,0,0,1,.23,1.63.49.49,0,0,0,0,.2,4,4,0,0,1,.13,1.1,9.67,9.67,0,0,0,.22,1.43,1.07,1.07,0,0,1,0,.25.51.51,0,0,1-.09.16.07.07,0,0,1,0,0,8.4,8.4,0,0,1-1.1.18c-.19,0-.3-.07-.32-.25,0-.52-.09-1.05-.12-1.57a21.54,21.54,0,0,0-.62-3.76c-.24-1-.52-2-.78-3a.14.14,0,0,1,0-.06,22.75,22.75,0,0,0-1-3.07c-.32-.88-.63-1.78-.94-2.67-.16-.43-.31-.86-.48-1.29a14.23,14.23,0,0,0-1.49-2.7,22.76,22.76,0,0,0-1.88-2.28,27,27,0,0,0-3.53-3.15,18.91,18.91,0,0,0-3.24-2l-1.19-.57a4.88,4.88,0,0,0-.86-.31c-.39-.11-.76-.22-1.14-.35a.62.62,0,0,0-.5,0,.75.75,0,0,0-.31,0l.36.58a13.65,13.65,0,0,1,2.31.86,27.11,27.11,0,0,1,2.63,1.47,24.25,24.25,0,0,1,2.17,1.6,19,19,0,0,1,2,1.82c.25.28.52.54.77.82a16.1,16.1,0,0,1,2.51,3.61c.11.21.21.43.3.65.33.82.63,1.64.91,2.47s.58,1.61.87,2.42a9.94,9.94,0,0,1,.41,1.31.85.85,0,0,0,.06.19,2.73,2.73,0,0,1,.29.86c.09.33.22.67.29,1,0,.12.09.25.13.37a13.51,13.51,0,0,1,.43,1.45,15.32,15.32,0,0,1,.38,2,.31.31,0,0,0,0,.13,10.49,10.49,0,0,1,.24,1.76,8.84,8.84,0,0,1,.08,1.71c0,.13.05.19.18.21a3.15,3.15,0,0,0,1,.05c.42-.05.83-.15,1.24-.22a1.21,1.21,0,0,0,.54-.22.42.42,0,0,0,.21-.31c0-.18,0-.35.07-.53a2.36,2.36,0,0,0,0-.46c-.06-.63-.14-1.26-.21-1.9,0-.36-.08-.74-.13-1.1a2.78,2.78,0,0,0-.12-.38c0-.12,0-.25-.07-.38a6.32,6.32,0,0,1-.33-1.54c0-.21-.2-.35-.2-.55a1,1,0,0,0-.09-.51,5.42,5.42,0,0,1-.41-1.17.67.67,0,0,1-.05-.19,4.81,4.81,0,0,0-.4-1.45,1.24,1.24,0,0,1-.1-.39,8,8,0,0,0-.37-1.33c-.11-.3-.2-.6-.29-.91l-.06,0A4.7,4.7,0,0,1,202.7,394.37Zm0,0" transform="translate(-164.1 -372.05)"/><path class="cls-4" d="M206.7,398.76a1.14,1.14,0,0,0,.15.36.91.91,0,0,1,.17.49,3.06,3.06,0,0,0,.17.63,1.57,1.57,0,0,1,.12.71,1.32,1.32,0,0,0,.1.58,8.93,8.93,0,0,1,.17.9c0,.21.08.43.13.64s0,.12,0,.19c.09.85.27,1.69.33,2.54,0,.5,0,1,0,1.51,0,.15,0,.31,0,.46s.13.15.19.15.19-.09.19-.16a4.62,4.62,0,0,0,.06-.64c0-.33,0-.66,0-1,0-.1,0-.21,0-.32,0-.38-.06-.75-.1-1.12s-.14-1-.21-1.5-.17-1.17-.26-1.75a2.35,2.35,0,0,1,0-.26,9.69,9.69,0,0,0-.31-1.94c0-.26-.22-.48-.23-.75a1.29,1.29,0,0,1-.16-.57,1.89,1.89,0,0,1-.05-.23l-.69.59C206.62,398.44,206.66,398.6,206.7,398.76Zm0,0" transform="translate(-164.1 -372.05)"/><path class="cls-5" d="M236.26,443.12c-.08.2-.06.33.12.43s.51.31.76.47h.23v-2.55l-.32.36A4.44,4.44,0,0,0,236.26,443.12Zm0,0" transform="translate(-164.1 -372.05)"/><path class="cls-5" d="M171.47,382c-.58-.55-1.15-1.11-1.69-1.7l-.3-.09c-.91-.28-1.84-.49-2.77-.69a4.76,4.76,0,0,1,.47.41c.81.81,1.63,1.61,2.45,2.4l1,.32,1.73.61a4.84,4.84,0,0,1,.57.23C172.43,383,172,382.47,171.47,382Zm0,0" transform="translate(-164.1 -372.05)"/><path class="cls-5" d="M166.21,378.67c.83.15,1.64.33,2.45.53-.31-.26-.62-.5-.9-.78-.44-.47-.92-.9-1.41-1.33l-.84-.73-.09-.08v2.1l.17.16Zm0,0" transform="translate(-164.1 -372.05)"/><path class="cls-5" d="M173.31,386.15a11.51,11.51,0,0,0,.85,1,2.66,2.66,0,0,1,.39.16c.08-.07.15-.1.16-.16.13-.34.24-.69.35-1a.57.57,0,0,0,0-.13c-.1-.13-.21-.24-.31-.37a17.21,17.21,0,0,0-3.09-1.4l-.1,0A14.18,14.18,0,0,1,173.31,386.15Zm0,0" transform="translate(-164.1 -372.05)"/><path class="cls-5" d="M168.57,374.94c.36.12.73.25,1.09.41l2.24.95a.12.12,0,0,1-.05-.05c-.46-.51-.94-1-1.42-1.5l-.6-.58a26.73,26.73,0,0,0-2.28-2l-.18-.14h-2v.18c.38.29.76.6,1.13.9A15.58,15.58,0,0,1,168.57,374.94Zm0,0" transform="translate(-164.1 -372.05)"/><path class="cls-5" d="M172.46,379.14a5.72,5.72,0,0,0,.37.49c.33.34.61.71.91,1.07.42.16.85.3,1.27.47s.8.32,1.19.48a.79.79,0,0,0,.13-.13l.06-.15c-.42-.5-.85-1-1.32-1.47l-.06-.08-1.35-1.55c-.13-.07-.25-.14-.37-.19-.33-.16-.66-.34-1-.49l-1.83-.8.5.54A18.11,18.11,0,0,1,172.46,379.14Zm0,0" transform="translate(-164.1 -372.05)"/><path class="cls-5" d="M172.52,373.61l.12.13q.53.54,1,1.08c.34.37.68.75,1,1.14l.23.28.13.17c.36.44.73.88,1.1,1.31.53.61,1,1.24,1.61,1.83s1.08,1.22,1.67,1.76a1.85,1.85,0,0,1,.65.9.83.83,0,0,0,.12.16l1.56,1.74a11.12,11.12,0,0,1,1.28,1.7,5.11,5.11,0,0,0,1,1.5.85.85,0,0,1,.17.25c.22.38.46.75.66,1.14a9.26,9.26,0,0,1,1.11,2.17.48.48,0,0,0,.1.17,2.65,2.65,0,0,1,.44.91c.17.44.3.9.46,1.34a12.57,12.57,0,0,1,.56,2.06c0,.16.05.33.09.5.44,1.53.73,3.09,1,4.66a5.52,5.52,0,0,1,.12.8,18.74,18.74,0,0,1,.11,3.35c0,.23,0,.47,0,.71,0,1.21,0,2.44-.15,3.65,0,.29-.06.56-.09.84s-.06.72-.07,1.08a2.38,2.38,0,0,1-.11.8,2.73,2.73,0,0,0-.19,1.09,1,1,0,0,1-.11.5,3.26,3.26,0,0,0-.27,1c0,.19-.07.37-.1.54-.07.32-.16.63-.25,1s-.11.38-.17.58c-.12.35-.2.71-.29,1.05,0,.05.06.08.1.09a8.74,8.74,0,0,0,1.47.11c.67,0,1.42,0,2-.08h0l.16-.16a4.7,4.7,0,0,0,1-1.7c.06-.17.13-.34.2-.52l.3-.8c.23-.63.46-1.27.66-1.91.11-.35.21-.7.29-1.06,0-.14.07-.28.1-.42.13-.66.26-1.31.4-1.95.06-.29.12-.56.19-.85a.5.5,0,0,1,0-.12,14.87,14.87,0,0,0,.24-1.88,25.23,25.23,0,0,0,0-2.75,12.56,12.56,0,0,0-.16-1.83,32.94,32.94,0,0,0-1-4.15c-.52-1.76-1.08-3.5-1.71-5.22-.25-.7-.47-1.42-.75-2.11-.64-1.56-1.38-3.1-2.17-4.59l-.11-.2c-.24-.44-.49-.87-.75-1.3-.39-.67-.81-1.33-1.22-2l-.37-.59-.24-.38a7,7,0,0,0-.41-.59l-.93-1.2c-.31-.4-.62-.81-.95-1.19a5.63,5.63,0,0,0-.93-1.18,6.34,6.34,0,0,0-1.16-1.37c-.2-.23-.47-.39-.58-.69a1.52,1.52,0,0,1-.25-.26,5,5,0,0,0-.51-.68c-.2-.19-.38-.39-.58-.59a10.15,10.15,0,0,0-1.29-1.25h-1.53c.06.08.14.15.2.24s0,.05.06.07a2,2,0,0,0,.58.55,2.59,2.59,0,0,1,.81.77,3.73,3.73,0,0,0,.67.76,1.4,1.4,0,0,1,.31.33,2.25,2.25,0,0,1,.16.31,1.82,1.82,0,0,0,.34.51l.64.71c.59.68,1.15,1.38,1.7,2.08s.88,1.13,1.26,1.72a13.93,13.93,0,0,1,1.19,1.76c.19.29.39.57.57.85.32.49.62,1,.92,1.49s.69,1.14,1,1.73c.7,1.24,1.36,2.5,1.95,3.8.4.89.71,1.83,1,2.76.61,1.76,1.23,3.52,1.75,5.31.39,1.38.73,2.75,1,4.16a19.62,19.62,0,0,1,.11,5.57c0,.27-.08.52-.13.78s-.08.34-.11.52-.08.33-.11.51l-.48,2.17c-.05.23-.12.46-.18.68s-.09.34-.13.49-.09.34-.15.5c-.28.87-.64,1.71-1,2.55-.06.16-.11.29-.15.41-.22.52-.34.63-.89.64h-.61a.76.76,0,0,1-.3,0,.51.51,0,0,1-.18-.11c.09-.47.2-.93.28-1.4,0-.11,0-.23.06-.34.05-.3.09-.6.14-.91s.09-.56.14-.84a12,12,0,0,0,.3-2.59v-.14a7.49,7.49,0,0,1,.05-.81s0-.07,0-.11c.09-1.46.14-2.91.13-4.36,0-.45,0-.89,0-1.33a13.51,13.51,0,0,0-.16-2.84c-.17-1.07-.36-2.14-.61-3.19-.34-1.53-.67-3.05-1-4.59a2.94,2.94,0,0,0-.16-.58,22.62,22.62,0,0,0-2-4.1,6.18,6.18,0,0,1-.37-.61,39.19,39.19,0,0,0-3.29-5c-.42-.53-.87-1-1.27-1.59a13.36,13.36,0,0,0-1.39-1.62,2.81,2.81,0,0,1-.4-.45,7.57,7.57,0,0,0-1.53-1.76,2.09,2.09,0,0,1-.2-.22c-.23-.3-.5-.59-.73-.89a4.22,4.22,0,0,1-.41-.66,1.76,1.76,0,0,0-.58-.57l0,0c-.22-.19-.25-.53-.5-.71a7.16,7.16,0,0,1-1.24-1.22l-.44-.52c-.13-.15-.29-.28-.42-.43l-.13-.17h-2.07A22.63,22.63,0,0,1,172.52,373.61Zm0,0" transform="translate(-164.1 -372.05)"/><path class="cls-5" d="M179.59,396.49a4.41,4.41,0,0,1,.4,1.08,3.4,3.4,0,0,1,.08.46,2.25,2.25,0,0,0,.16.68l.06.13a5,5,0,0,1,.35,1.74c0,.68.1,1.35.15,2s.19,1.07.25,1.61c.09,1,.17,2,.25,3a1.86,1.86,0,0,1,0,.41,4.58,4.58,0,0,0,0,1.11c0,.48.05.95.12,1.42a6.33,6.33,0,0,1-.1,1.51c0,.14,0,.28,0,.41a8.39,8.39,0,0,1-.17,1.21c-.14.48-.14,1-.32,1.48a2.66,2.66,0,0,1-.34,1.37.41.41,0,0,0,.08.46.42.42,0,0,0,.25.16.84.84,0,0,0,.2.05c.26,0,.52.05.77.09.55.06,1.1.14,1.66.19a1.28,1.28,0,0,0,1.32-.53,1.08,1.08,0,0,0,.41-.67c.17-.58.35-1.17.54-1.75a7.32,7.32,0,0,0,.34-1.38c0-.09,0-.18,0-.26.06-.47.13-.93.2-1.4,0-.12,0-.23,0-.35a29,29,0,0,0,.21-5.89,40.18,40.18,0,0,0-1-7.24,33,33,0,0,0-1.31-4.38,21,21,0,0,0-2.18-4.24c-.41-.58-.82-1.17-1.25-1.73-.86-1.17-1.75-2.33-2.61-3.5-.4-.54-.8-1.09-1.21-1.62a6.3,6.3,0,0,1-.27.91s0,0-.1.07c-.29-.14-.59-.28-.88-.44s-.49-.27-.74-.39a16.87,16.87,0,0,1,1.24,1.58c.79,1.06,1.55,2.14,2.35,3.19s1.63,2.16,2.38,3.29a9.37,9.37,0,0,1,.59.95,25.23,25.23,0,0,1,2.47,6.32c.13.56.25,1.13.38,1.7a27.16,27.16,0,0,1,.64,4.12,41.09,41.09,0,0,1,.19,4.16,39.22,39.22,0,0,1-.36,4.47l0,.19c-.07.52-.16,1-.27,1.53a21.68,21.68,0,0,1-.62,2.23.42.42,0,0,1-.45.33l-1.16-.14h-.05c-.06,0-.11-.07-.21-.15a10.08,10.08,0,0,0,.25-1.57l.06-.6a20.74,20.74,0,0,0-.12-4.66c0-.37-.08-.74-.08-1.11s0-.61-.05-.92c-.07-1-.16-2-.19-3,0-1.46-.23-2.9-.4-4.34a20.31,20.31,0,0,0-.72-3.2c-.1-.34-.21-.68-.31-1a.35.35,0,0,0,0-.12,2.37,2.37,0,0,0-.28-.65,13,13,0,0,1-.91-1.93l-.09-.19a14.37,14.37,0,0,0-.68-1.36c-.41-.74-.86-1.44-1.34-2.14-.28-.42-.55-.85-.82-1.29s-.49-.86-.77-1.25c-.18.59-.4,1.17-.57,1.77l0,.05a18.58,18.58,0,0,0,1.2,1.57,7.39,7.39,0,0,1,.61.89,5.45,5.45,0,0,1,.29.53c.05.1.1.21.14.31a8.21,8.21,0,0,0,.79,1.53,2.46,2.46,0,0,1,.17.27,1.53,1.53,0,0,1,.11.27,5.56,5.56,0,0,0,.53,1.13c0,.05.06.11.08.16C179.18,395.56,179.37,396,179.59,396.49Zm0,0" transform="translate(-164.1 -372.05)"/><path class="cls-5" d="M235.93,375.29c-.66,0-1.32,0-2,0l1,.79a14.05,14.05,0,0,1,1.35,1.21c.35.36.71.72,1.07,1.07v-2.11c-.36-.33-.72-.66-1.09-1Zm0,0" transform="translate(-164.1 -372.05)"/><path class="cls-5" d="M234.35,373.76a.67.67,0,0,0-.18-.11.6.6,0,0,0-.67,0,7.16,7.16,0,0,0-.61.48c.59,0,1.17-.07,1.77-.08A2.27,2.27,0,0,1,234.35,373.76Zm0,0" transform="translate(-164.1 -372.05)"/><path class="cls-5" d="M237.37,372.07h-.23l.23.18Zm0,0" transform="translate(-164.1 -372.05)"/><path class="cls-5" d="M172.64,443.72c-.42-.38-.87-.76-1.31-1.13l-.56-.47-.64-.54-1.06-.89a4.6,4.6,0,0,0-.58-.4c-.23-.13-.48-.24-.72-.37a.76.76,0,0,0-.59,0,2.2,2.2,0,0,0-.75.52c-.34.34-.68.68-1,1V444h2l-1.73-1.36c-.22-.17-.23-.38,0-.63a10.71,10.71,0,0,1,1.18-1.25.15.15,0,0,1,.09,0c.1,0,.21,0,.28,0a1.26,1.26,0,0,1,.31.26,18.11,18.11,0,0,0,1.64,1.52c.27.21.56.41.82.63a2.78,2.78,0,0,1,.48.49l.14.14.1.06.2.16h2l-.06-.08A1,1,0,0,0,172.64,443.72Zm0,0" transform="translate(-164.1 -372.05)"/><path class="cls-5" d="M177.63,443.53l-.38-.34-1.05-.95-.61-.56-1-.95-.69-.61-.23-.18c-.37-.31-.75-.6-1.13-.9l-.41-.29-.6-.37c-.23-.14-.47-.3-.7-.43l-.2-.12-.69-.36a.39.39,0,0,0-.37.11c-.05.08-.05.31,0,.37l.57.42.42.28c.25.17.49.32.74.5s.52.36.77.55c.46.36.9.75,1.33,1.14s.62.58.93.86.47.42.71.61c.07.07.13.16.21.23l.71.72s0,0,0,0c.25.24.52.47.76.73h1.53l-.36-.24Zm0,0" transform="translate(-164.1 -372.05)"/><path class="cls-5" d="M167.17,425.33c.5.11,1,.13,1.51.19s.8,0,1.21.05c.76.07,1.51.17,2.27.25a1,1,0,0,1,.3.05,3.7,3.7,0,0,0,.82.14c.35,0,.7.11,1.06.12h0a5.45,5.45,0,0,1,1.05.29l.13,0,.17,0a8.57,8.57,0,0,1,.85.3c.31.16.66.24,1,.41l.08,0a1.84,1.84,0,0,1,.75.31l.2.14a.35.35,0,0,0,.5-.16.83.83,0,0,0,.07-.13c.16-.58.39-1.15.55-1.74a1,1,0,0,0-.11-.94l-.09-.1a.77.77,0,0,0-.43-.4l-.1-.05c-.37-.19-.75-.39-1.11-.6s-.43-.23-.66-.33l-.31-.12-.79-.27-.64-.23a21.78,21.78,0,0,0-4.29-1,30.17,30.17,0,0,0-5.46-.31,1.42,1.42,0,0,1-.29,0v1.11h.08l1.29,0a23,23,0,0,1,3.11.12A29.16,29.16,0,0,1,173,423c.89.2,1.76.43,2.63.71l.73.24.4.14a16.73,16.73,0,0,1,1.88.86l.35.2a.3.3,0,0,1,.18.37c0,.1-.07.21-.1.31s-.13.37-.19.55-.06.07-.14.14a5.74,5.74,0,0,0-.72-.3l-.82-.25a7.87,7.87,0,0,0-1.25-.31c-.41-.08-.83-.14-1.25-.18l-.95-.1a5.87,5.87,0,0,1-.83-.1c-.22,0-.45-.06-.67-.09-.75-.1-1.51-.17-2.26-.3a32.23,32.23,0,0,0-3.25-.33,9.4,9.4,0,0,0-1.3,0v.87a1,1,0,0,0,.3,0A4.57,4.57,0,0,1,167.17,425.33Zm0,0" transform="translate(-164.1 -372.05)"/><path class="cls-5" d="M168.88,419.44a14.75,14.75,0,0,1,2.48.41c.16,0,.35.06.52.1a27.08,27.08,0,0,1,2.66.64c.46.14.91.29,1.39.39a1.84,1.84,0,0,1,.57.2,2.09,2.09,0,0,0,.48.22,1.53,1.53,0,0,0,.29.07.63.63,0,0,1,.34.16,2.26,2.26,0,0,0,.43.24l.25.1a15.74,15.74,0,0,1,1.44.68l.09.06.64.31s.08,0,.08-.06a8.69,8.69,0,0,0,.44-1.83c0-.28.07-.53.09-.76a3.4,3.4,0,0,0-1.12-1.11l-.07,0c-.31-.18-.59-.38-.9-.56h0a17.52,17.52,0,0,0-2.34-1.25q-1-.4-1.95-.84a14.3,14.3,0,0,0-1.44-.48,17.21,17.21,0,0,0-2-.41q-.42-.07-.84-.12c-.17,0-.34,0-.51,0h-.71c-.84,0-1.66.06-2.49.13l-1.2.13h0v1l1.35-.14,1.22-.09c.47,0,.93,0,1.4,0H170a14.37,14.37,0,0,1,4.11.72,9.11,9.11,0,0,1,.91.37c.64.26,1.26.54,1.89.82.27.12.55.27.82.4s.54.29.81.45l1,.62.31.21c.75.47.73.42.53,1.36a.68.68,0,0,1-.09.22s-.06.06-.1.1l-1-.4c-.2-.07-.41-.14-.6-.22s-.61-.22-.9-.34l-.2-.08a7.81,7.81,0,0,0-1.75-.52c-.2,0-.39-.1-.59-.15-1.08-.29-2.17-.55-3.27-.75-.32-.06-.65-.13-1-.22a10.72,10.72,0,0,0-2.11-.29c-.81,0-1.63,0-2.43,0h-.05l-.85,0v.63c.95-.05,1.91,0,2.86,0A3.9,3.9,0,0,1,168.88,419.44Zm0,0" transform="translate(-164.1 -372.05)"/><path class="cls-5" d="M234.55,416.16c-.55.08-1.11.14-1.66.25a36.21,36.21,0,0,0-3.69.93c-1.24.38-2.44.87-3.65,1.33l-.48.21c-.34.17-.68.33-1,.51s-.69.33-1,.52a4.52,4.52,0,0,0-1,.52,4.61,4.61,0,0,0-1.17.65,1.82,1.82,0,0,1-.59.33c-.24.21-.56.24-.81.42s-.61.4-.93.6a4.56,4.56,0,0,0-.91.73,2.31,2.31,0,0,1-.24.2c-.55.41-1.09.82-1.65,1.22l-1.11.84-.28.21-.18.15c-.27.22-.54.46-.82.68l-.25.23,0,0-.57.61c-.06.07-.14.14-.21.23l-.48.58a.26.26,0,0,0,0,.28s0,0,0,0a.3.3,0,0,0,.23,0l.39-.37c.42-.4.82-.83,1.26-1.21.75-.66,1.58-1.19,2.35-1.81a2,2,0,0,1,.19-.12c.21-.14.42-.27.63-.42l.05,0c.28-.19.54-.39.83-.55a1.57,1.57,0,0,0,.55-.39,2,2,0,0,1,.68-.48,2.84,2.84,0,0,0,.65-.38,1.05,1.05,0,0,1,.54-.26,1.38,1.38,0,0,0,.42-.17c.78-.47,1.58-.9,2.39-1.31.48-.24.95-.48,1.45-.68a9.41,9.41,0,0,1,1.46-.62c.77-.33,1.57-.63,2.36-.91q.5-.18,1-.33a2.5,2.5,0,0,0,.25-.09c.93-.29,1.87-.57,2.82-.79l.12,0c.68-.15,1.36-.23,2.05-.33l.09,0c.91-.12,1.81-.26,2.7-.36v-1l-1.5.19C235.42,416,235,416.08,234.55,416.16Zm0,0" transform="translate(-164.1 -372.05)"/><path class="cls-5" d="M234.81,424.8a12.31,12.31,0,0,1-1.69.43,15.43,15.43,0,0,0-2.87,1c-.35.15-.71.28-1.06.42a11.91,11.91,0,0,0-1.13.43,11.5,11.5,0,0,1-1.36.68,1.07,1.07,0,0,0-.19.13,4,4,0,0,1-.7.45c-.56.35-1.13.67-1.67,1.05a20.13,20.13,0,0,1-1.71,1.12,6.91,6.91,0,0,0-.62.44c-.17.13-.35.28-.52.43a3.62,3.62,0,0,1-.32.22l-.37.25a9.72,9.72,0,0,0-.8.59l-.65.5h0l-.57.43a8.57,8.57,0,0,0-.75.6c-.17.14-.31.3-.47.44a2.7,2.7,0,0,1-.56.45s-.07.07-.11.11a.45.45,0,0,0-.11.23.37.37,0,0,0,0,.25,5.44,5.44,0,0,0,.27.54l0,0a.11.11,0,0,0,.08,0,.54.54,0,0,0,.2-.1c.2-.17.39-.33.58-.51l.8-.68.44-.35a6.51,6.51,0,0,1,.6-.43l0,0c.49-.31,1-.63,1.41-1l.5-.41a1.09,1.09,0,0,1,.17-.13,1.5,1.5,0,0,1,.25-.19c1.12-.75,2.23-1.51,3.32-2.3a11.67,11.67,0,0,1,2.15-1.29c.32-.15.61-.35.92-.53a.93.93,0,0,1,.2-.1,11.16,11.16,0,0,0,2.15-.95,5.13,5.13,0,0,1,1.42-.51,7,7,0,0,0,1.24-.36,1.41,1.41,0,0,1,.43-.13,5.18,5.18,0,0,0,1-.26l1.1-.28a3,3,0,0,1,1.2-.12h.21v-.86c-.68,0-1.36.1-2,.17A2.38,2.38,0,0,0,234.81,424.8Zm0,0" transform="translate(-164.1 -372.05)"/><path class="cls-5" d="M234.76,418.85a2.22,2.22,0,0,0-.45,0,16.81,16.81,0,0,0-3.29.88l-.5.19-.75.25-.58.21a27.11,27.11,0,0,0-2.82,1.24c-.45.24-.89.49-1.35.7a9,9,0,0,0-1.38.79,2.65,2.65,0,0,1-.39.23,5.37,5.37,0,0,0-1.51.86.82.82,0,0,1-.2.12,7,7,0,0,1-1.3.62,1.21,1.21,0,0,0-.5.34c-.17.16-.43.12-.62.28a4.19,4.19,0,0,1-.91.65l-.48.27-.13.07c-.14.08-.25.17-.37.25a4,4,0,0,0-.41.22l-.54.42-.47.37-.17.13-1.12.9-.43.35a1.79,1.79,0,0,0-.25.23l-.13.15c-.13.15-.25.32-.37.48a.51.51,0,0,0-.09.43,1.56,1.56,0,0,0,.28.63c.26.4.52.8.82,1.18a3.78,3.78,0,0,0,.83.77c.14.09.24.09.33,0l.08-.08a5.32,5.32,0,0,1,.76-.74c.2-.18.41-.35.61-.51l.46-.37a6.73,6.73,0,0,1,.65-.52,3.29,3.29,0,0,1,.54-.34l.12-.09a7.5,7.5,0,0,1,.86-.62l.66-.42.43-.27a12.67,12.67,0,0,1,1.54-.83,3.11,3.11,0,0,0,.41-.2c.34-.23.71-.39,1.06-.6a3.39,3.39,0,0,1,.94-.45,1,1,0,0,0,.2-.11,11.08,11.08,0,0,1,1.41-.73c.89-.43,1.8-.83,2.69-1.27s1.82-.88,2.76-1.27a8.32,8.32,0,0,1,.78-.3,18.79,18.79,0,0,1,4.92-.89v-1.11a23.25,23.25,0,0,0-3.11.32,16.39,16.39,0,0,0-3.43,1l-1.46.66-2.94,1.42a24.8,24.8,0,0,0-3.31,1.73l-.06,0c-1,.6-2.06,1.2-3.08,1.81l-.24.15-.61.38c-.54.35-1.07.71-1.58,1.1-.21.17-.43.33-.64.51s-.34.28-.5.43l-.57.5c-.25.2-.5.41-.74.63l-.08.06c-.17.14-.31.12-.47-.05a7.14,7.14,0,0,1-.75-1.05s0,0,0-.07a.58.58,0,0,1,.06-.21,1.08,1.08,0,0,1,.24-.18l.23-.15c.24-.16.48-.34.71-.51l.41-.33a8.42,8.42,0,0,1,.71-.61,1.92,1.92,0,0,1,.31-.18,1.27,1.27,0,0,0,.17-.14c.06-.06.13-.11.18-.17a12.67,12.67,0,0,1,1.34-1l.1-.07.5-.32c.55-.35,1.1-.68,1.68-1l1.26-.69c.52-.3,1.06-.59,1.57-.92s1-.61,1.54-1a1.47,1.47,0,0,1,.75-.34c.05,0,.09,0,.14-.06l1.5-.9a7.8,7.8,0,0,1,1.43-.68,3.79,3.79,0,0,0,1.25-.55l.07,0,.14-.05c.31-.11.62-.23.93-.32a7.27,7.27,0,0,1,1.75-.5.34.34,0,0,0,.14-.05,1.93,1.93,0,0,1,.74-.19c.35-.06.71-.09,1-.14a9.38,9.38,0,0,1,1.59-.12h.49l.61,0v-.63h-1.08Zm0,0" transform="translate(-164.1 -372.05)"/><path class="cls-6" d="M178.34,425.54l-.34.67a4.62,4.62,0,0,1,.73.29c.11-.22.2-.46.32-.68s.07-.21.1-.31a.32.32,0,0,0-.17-.38l-.36-.19a.21.21,0,0,0,0,.07C178.51,425.19,178.43,425.37,178.34,425.54Zm0,0" transform="translate(-164.1 -372.05)"/><path class="cls-6" d="M176,443.29c0,.24-.07.48-.11.73h.87C176.53,443.77,176.26,443.54,176,443.29Zm0,0" transform="translate(-164.1 -372.05)"/><path class="cls-6" d="M177.63,420.84l.89.34c.27-.37.56-.75.84-1.12l.11-.15c-.32-.2-.64-.42-1-.62-.36.49-.74,1-1.08,1.46Zm0,0" transform="translate(-164.1 -372.05)"/><path class="cls-6" d="M174.69,425.47c.42,0,.84.1,1.26.17.06-.13.13-.26.19-.4.2-.39.4-.79.61-1.18l-.4-.14c-.24-.08-.48-.17-.73-.24-.15.26-.3.53-.44.81S174.85,425.14,174.69,425.47Zm0,0" transform="translate(-164.1 -372.05)"/><path class="cls-6" d="M171.5,438.14a2.23,2.23,0,0,1,.16-.92,3,3,0,0,0,.21-.83,1.29,1.29,0,0,1,.24-.64,1.63,1.63,0,0,0,.2-.47c.24-1,.55-2,.86-3a18,18,0,0,1,.62-1.7,10.55,10.55,0,0,1,.68-1.68c.34-.84.7-1.66,1.09-2.47l-.13,0a5.45,5.45,0,0,0-1.05-.29c-.36.78-.7,1.55-1,2.33-.08.19-.15.38-.22.57-.14.41-.27.82-.41,1.22s-.29.82-.39,1.24a4.63,4.63,0,0,0-.39,1.21,5.75,5.75,0,0,0-.42,1.47,1.91,1.91,0,0,1-.21.74,8.57,8.57,0,0,1-.31,1c-.1.64-.32,1.28-.38,1.93a1.32,1.32,0,0,0,.2.12l.7.43A1,1,0,0,0,171.5,438.14Zm0,0" transform="translate(-164.1 -372.05)"/><path class="cls-6" d="M174.08,443.55a14.73,14.73,0,0,1,.25-1.87c-.32-.28-.63-.56-.93-.85,0,.12-.08.25-.11.37s-.06.33-.1.5-.13.33-.15.49c-.07.48-.13,1-.18,1.46a2.85,2.85,0,0,1,0,.29l.06.08H174a.83.83,0,0,1,.06-.21A1.1,1.1,0,0,0,174.08,443.55Zm0,0" transform="translate(-164.1 -372.05)"/><path class="cls-6" d="M170.4,443.67a2.81,2.81,0,0,0-.47-.5c0,.29-.06.57-.09.85h.68l0-.22A.6.6,0,0,1,170.4,443.67Zm0,0" transform="translate(-164.1 -372.05)"/><path class="cls-6" d="M189.59,409.5s0,.06,0,.1c0,.28-.05.55-.05.82v.13l.11,0,2.16-.85c.28-.11.58-.2.86-.3,0-.16.07-.33.11-.51s.07-.34.11-.51a14,14,0,0,0-2.11.67C190.39,409.18,190,409.34,189.59,409.5Zm0,0" transform="translate(-164.1 -372.05)"/><path class="cls-6" d="M188.61,410.94c0-.36,0-.72.07-1.08l-.14.05a16.93,16.93,0,0,0-1.54.76c-.25.13-.48.29-.71.43-.07.47-.13.94-.2,1.4A20.81,20.81,0,0,1,188.61,410.94Zm0,0" transform="translate(-164.1 -372.05)"/><path class="cls-6" d="M182.35,414.47a9.13,9.13,0,0,1-.25,1.58c.1.07.15.14.21.15h.05c.71-.83,1.45-1.65,2.23-2.42.11-.5.2-1,.27-1.52l0-.19a9.62,9.62,0,0,0-1,.85C183.32,413.43,182.83,413.94,182.35,414.47Zm0,0" transform="translate(-164.1 -372.05)"/><path class="cls-6" d="M189.09,414c-.05.3-.09.61-.14.91l.05,0c.86-.57,1.73-1.13,2.64-1.62l.08,0,.15-.5c0-.17.09-.33.13-.49a2.68,2.68,0,0,1-.33.18C190.8,412.91,189.93,413.44,189.09,414Zm0,0" transform="translate(-164.1 -372.05)"/><path class="cls-6" d="M193.89,409c.52-.13,1.05-.23,1.57-.34,1-.21.93-.25,1.51.68a.7.7,0,0,1,.11.23.54.54,0,0,1,0,.18c-.36.14-.74.29-1.11.46-.55.25-1.09.52-1.65.75l-.93.41c-.08.36-.18.71-.29,1.06a2.09,2.09,0,0,1,.6-.29,2.21,2.21,0,0,0,.86-.38.78.78,0,0,1,.4-.15,2.86,2.86,0,0,0,.81-.27,15.14,15.14,0,0,1,1.71-.61c.3-.08.59-.2.88-.28,0-.06,0-.1,0-.12a12.85,12.85,0,0,0-1.65-2.51,4.08,4.08,0,0,0-1.87,0l-.74.17,0,.12C194,408.45,194,408.72,193.89,409Zm0,0" transform="translate(-164.1 -372.05)"/><path class="cls-6" d="M181.35,442.19q.43-2.24.81-4.5a14.57,14.57,0,0,1,.69-2.75,10,10,0,0,0,.31-1.16,1.7,1.7,0,0,1,.09-.24,13.83,13.83,0,0,0,1-2.48,5.48,5.48,0,0,1,.72-1.55,7,7,0,0,0,.71-1.29,1.48,1.48,0,0,1,.25-.44,6.74,6.74,0,0,0,.61-1c.2-.38.45-.73.65-1.11a3.81,3.81,0,0,1,.86-1.05,1.84,1.84,0,0,0,.4-.44,4.34,4.34,0,0,1,1.13-1.17c.48-.32.91-.71,1.35-1.06s.66-.64,1-.93c.66-.54,1.34-1.08,2-1.61a.9.9,0,0,1,.28-.2,4.68,4.68,0,0,0,.77-.55,11.44,11.44,0,0,0,.94-.75,5.65,5.65,0,0,1,1.11-.65l.29-.17a6.57,6.57,0,0,1,.93-.44c.41-.14.78-.38,1.2-.48a2.42,2.42,0,0,1,1.13-.41.38.38,0,0,0,.28-.53c0-.06,0-.11-.05-.16-.35-.59-.62-1.23-.95-1.83a1.07,1.07,0,0,0-1-.67.94.94,0,0,0-.66,0c-.5.16-1,.31-1.48.44a7.36,7.36,0,0,0-1.14.41c-.51.25-1,.5-1.56.74s-1.27.65-1.88,1c-.07.17-.13.35-.2.52a4.68,4.68,0,0,1-1,1.7q.69-.51,1.41-1a32.62,32.62,0,0,1,3.47-1.93,16.91,16.91,0,0,1,3.07-1.14.38.38,0,0,1,.45.16c.15.3.31.6.46.92,0,0,0,.11,0,.22a12.16,12.16,0,0,0-1.67.8,18.38,18.38,0,0,0-3.23,2.3c-.24.2-.48.4-.74.58s-.42.31-.62.46c-.68.53-1.35,1.08-2.06,1.58-1,.72-1.94,1.53-2.87,2.34a20.65,20.65,0,0,0-2.56,2.8,1.91,1.91,0,0,0-.32.51,13.79,13.79,0,0,1-1,1.69,19.1,19.1,0,0,0-1.51,3.08c-.16.41-.34.8-.52,1.19s-.42.82-.57,1.26a13.47,13.47,0,0,1-.53,1.63.66.66,0,0,0,0,.25,4.2,4.2,0,0,1-.2.92c-.16.73-.36,1.45-.49,2.18a19.65,19.65,0,0,1-.48,2.28c-.07.27-.09.56-.14.84s-.06.81-.14,1.2-.2,1-.26,1.51h1.36c.07-.4.12-.82.15-1.23A2.91,2.91,0,0,1,181.35,442.19Zm0,0" transform="translate(-164.1 -372.05)"/><path class="cls-6" d="M170.21,441.08c0,.17-.05.34-.08.5l.64.54c0-.31.1-.63.13-.95,0-.08,0-.16.06-.25.06-.28.11-.55.17-.84s.09-.63.16-.94l-.74-.5c0,.05,0,.09,0,.14C170.43,439.55,170.32,440.32,170.21,441.08Zm0,0" transform="translate(-164.1 -372.05)"/><path class="cls-6" d="M178,421.87a1.82,1.82,0,0,1-.43-.24.89.89,0,0,0-.34-.16,1,1,0,0,1-.29-.07c-.3.48-.59,1-.88,1.44l.79.27.31.13.69-1.17A1.73,1.73,0,0,0,178,421.87Zm0,0" transform="translate(-164.1 -372.05)"/><path class="cls-6" d="M189.71,416.81c.55,0,.67-.11.88-.64-.27.2-.55.39-.81.6Zm0,0" transform="translate(-164.1 -372.05)"/><path class="cls-6" d="M175.58,436.94c.17-.67.38-1.33.52-2s.35-1.34.46-2a1.69,1.69,0,0,1,.32-.88.44.44,0,0,0,.06-.16c.15-.64.32-1.28.48-1.92a8.78,8.78,0,0,1,.6-1.7c.11-.24.24-.47.35-.7a1.75,1.75,0,0,0-.76-.31l-.07,0a26.93,26.93,0,0,0-1.17,3c-.17.55-.32,1.1-.51,1.64a8.17,8.17,0,0,0-.48,1.74,2.17,2.17,0,0,1-.13.5,6.31,6.31,0,0,0-.52,1.9,1.17,1.17,0,0,1-.07.25,7.07,7.07,0,0,1-.55,1.54,1.46,1.46,0,0,0-.12.66c0,.26-.26.45-.27.72a3.84,3.84,0,0,1-.09.75,2,2,0,0,0,.23.18c.23.21.45.41.69.61a22.34,22.34,0,0,1,.58-2.24C175.29,438,175.44,437.46,175.58,436.94Zm0,0" transform="translate(-164.1 -372.05)"/><path class="cls-6" d="M188.68,417.62a32.1,32.1,0,0,0-3.53,3.27,27,27,0,0,0-2.47,3,17.42,17.42,0,0,0-2,3.54c-.22.55-.44,1.12-.64,1.69-.41,1.17-.8,2.33-1.22,3.49a28.87,28.87,0,0,0-1.25,4l0,.09c-.34,1.31-.7,2.61-1,3.92-.12.53-.25,1.07-.36,1.6l1,.95a20.82,20.82,0,0,1,.49-2.45,15.94,15.94,0,0,1,.57-1.9,2.56,2.56,0,0,0,.16-.49c.1-.45.26-.88.38-1.32a4,4,0,0,1,.39-1.13.61.61,0,0,0,.07-.25,12.79,12.79,0,0,1,.56-1.72c.37-1.06.78-2.1,1.14-3.17s.75-2.16,1.19-3.23a7.34,7.34,0,0,1,.39-.86,20.64,20.64,0,0,1,3.3-4.72l1-1.07a23.45,23.45,0,0,1,2.6-2.39l1.21-.95C190.09,417.6,189.34,417.62,188.68,417.62Zm0,0" transform="translate(-164.1 -372.05)"/><path class="cls-6" d="M181,416.83l-.2-.05a.57.57,0,0,1-.26-.16c-.54.67-1.07,1.35-1.58,2h0c.31.18.61.38.9.56l.07,0c.6-.8,1.21-1.59,1.83-2.36C181.52,416.87,181.27,416.85,181,416.83Zm0,0" transform="translate(-164.1 -372.05)"/><path class="cls-6" d="M180.25,423.63a2.39,2.39,0,0,1,.43-.74c.24-.33.5-.63.73-1a10.94,10.94,0,0,1,1.18-1.37c.1-.1.22-.19.31-.3.87-1,1.84-2,2.79-2.94a4.51,4.51,0,0,1,.51-.46c.44-.37.9-.74,1.37-1.07.09-.32.17-.63.24-1l-.29.18a10.41,10.41,0,0,0-1.92,1.45c-.68.63-1.34,1.27-2,1.94-.86.92-1.75,1.84-2.65,2.73a9.38,9.38,0,0,1-.44,1.83s0,0-.08.06l-.64-.32a16.57,16.57,0,0,0-.84,1.48l.09.05a.75.75,0,0,1,.43.39l.09.11a3.88,3.88,0,0,1,.59-.95A.33.33,0,0,0,180.25,423.63Zm0,0" transform="translate(-164.1 -372.05)"/><path class="cls-6" d="M174.66,376c-.31,0-.62-.12-.93-.19a.13.13,0,0,1-.07,0,.65.65,0,0,1-.11-.22,1,1,0,0,1,0-.34c0-.12,0-.23.07-.36-.33-.36-.68-.72-1-1.08,0,.15,0,.3,0,.45a4,4,0,0,0,0,.6c0,.23.06.46.08.69a.57.57,0,0,0,.28.41,1.78,1.78,0,0,0,.72.28c.45.09.9.18,1.37.25l-.14-.16Zm0,0" transform="translate(-164.1 -372.05)"/><path class="cls-6" d="M173.45,372.67l.44.53a6.1,6.1,0,0,1,.11-1.13h-1.11l.13.18C173.16,372.4,173.31,372.52,173.45,372.67Zm0,0" transform="translate(-164.1 -372.05)"/><path class="cls-6" d="M169.79,373c0,.39,0,.79,0,1.18l.6.58a1.48,1.48,0,0,1,0-.21c0-.66,0-1.33,0-2,0-.16,0-.33.05-.49h-.68c0,.16,0,.33,0,.49A3.09,3.09,0,0,0,169.79,373Zm0,0" transform="translate(-164.1 -372.05)"/><path class="cls-6" d="M175.64,375.13l0,0a1.59,1.59,0,0,1,.58.57,4,4,0,0,0,.41.66.24.24,0,0,0,.14-.25,11.08,11.08,0,0,1,.09-2.23c.05-.5.07-1,.15-1.51a.27.27,0,0,1-.07-.08c-.07-.08-.13-.16-.2-.23h-.87c-.06.52-.11,1-.14,1.55S175.68,374.63,175.64,375.13Zm0,0" transform="translate(-164.1 -372.05)"/><path class="cls-6" d="M179.27,376.53a.33.33,0,0,0,0,.17.51.51,0,0,0,.33.46l.65.22a.23.23,0,0,0,.14-.07.53.53,0,0,0,.08-.24l.06-.74-.64-.72a1.72,1.72,0,0,1-.33-.51,1.34,1.34,0,0,0-.17-.31,1.5,1.5,0,0,0,0,.2A6.66,6.66,0,0,1,179.27,376.53Zm0,0" transform="translate(-164.1 -372.05)"/><path class="cls-6" d="M179.63,373.1a1.43,1.43,0,0,1,0,.22l.58.58a5.86,5.86,0,0,1,.51.69,10.43,10.43,0,0,1,.17-1.12c.1-.46.19-.93.27-1.4h-1.37s0,.07,0,.1C179.71,372.48,179.67,372.79,179.63,373.1Zm0,0" transform="translate(-164.1 -372.05)"/><path class="cls-6" d="M234.66,374.07c-.6,0-1.19,0-1.77.08l-.94.07c-1.65.16-3.29.35-4.92.6-.67.1-1.34.17-2,.3l-.43.09-.84.17c-.69.16-1.38.34-2.06.53l-.55.16-.57.17c-.37.11-.73.23-1.09.36s-.62.22-.93.33q-1.06.39-2.13.81l-.25.09-.39.17-.19.09-1.23.61c-.41.21-.83.4-1.23.63A5.39,5.39,0,0,0,212,380a5.52,5.52,0,0,0-1.43.78,2.17,2.17,0,0,1-.71.4c-.29.25-.68.29-1,.51a12.57,12.57,0,0,0-2.22,1.61,3,3,0,0,1-.28.24l-2,1.48c-.56.42-1.13.83-1.69,1.27-.19.15-.38.3-.57.47l-.63.53,0,0-.29.27-.73.78-.21.23a2.31,2.31,0,0,0-.24.29c-.12.14-.24.28-.34.42a.33.33,0,0,0,0,.34.31.31,0,0,0,.33,0l.34-.32.13-.12c.12-.11.22-.22.33-.33.35-.35.7-.71,1.07-1l.11-.11.56-.45c.75-.59,1.54-1.13,2.28-1.73l.23-.14c.26-.16.51-.33.76-.51a12.39,12.39,0,0,1,1.07-.71,2.13,2.13,0,0,0,.67-.47,2.36,2.36,0,0,1,.81-.58,3.47,3.47,0,0,0,.79-.46,1.44,1.44,0,0,1,.66-.31,1.32,1.32,0,0,0,.51-.21c.94-.57,1.91-1.08,2.89-1.58.57-.29,1.15-.57,1.74-.81l.61-.29c.22-.11.44-.21.67-.3a2.81,2.81,0,0,1,.49-.16c.5-.22,1-.43,1.52-.62.32-.13.64-.24,1-.36l1.56-.53.05,0,.56-.18c.77-.24,1.54-.47,2.32-.68l.78-.19h.06c.84-.19,1.7-.3,2.57-.41,1.66-.24,3.33-.48,5-.63.63,0,1.25-.09,1.87-.11s1.32-.05,2,0h.35c.36,0,.73.05,1.09.09v-1.12a11.76,11.76,0,0,0-1.57-.16C235.42,374.07,235,374.06,234.66,374.07Zm0,0" transform="translate(-164.1 -372.05)"/><path class="cls-6" d="M234.45,378.05c-1,0-1.95-.06-2.93,0-1.41,0-2.82.06-4.23.05a2.62,2.62,0,0,0-.55.05,22.44,22.44,0,0,0-2.81.65c-.3.1-.59.19-.88.3a2.65,2.65,0,0,1-.3.11c-.2.09-.39.15-.59.22-.52.17-1,.34-1.53.52l-.66.25c-.6.24-1.19.49-1.77.76l-1,.51h0c-.54.28-1.08.58-1.62.84l-.16.08c-.38.18-.75.38-1.1.59-.14.09-.28.18-.41.28a2.48,2.48,0,0,1-.47.27,6.91,6.91,0,0,0-1.83,1.05,1.76,1.76,0,0,1-.23.14,8.81,8.81,0,0,1-1.58.75,1.55,1.55,0,0,0-.59.4c-.2.19-.53.14-.75.35a7.9,7.9,0,0,1-1.84,1.18c-.16.09-.3.22-.44.31s-.35.15-.49.25l-1.23,1-.56.45-.7.56c-.27.22-.54.43-.81.66a2.54,2.54,0,0,0-.41.39l-.05.05c-.13.15-.24.31-.36.46l-.09.11a.57.57,0,0,0-.1.52,1.86,1.86,0,0,0,.32.75c.33.48.64,1,1,1.43l.06.08a4.76,4.76,0,0,0,.94.85l.06,0a.23.23,0,0,0,.33-.07,8.78,8.78,0,0,1,1.12-1.08l.64-.53a.35.35,0,0,0,.1-.08,11.75,11.75,0,0,1,1.87-1.41l.15-.1a20.73,20.73,0,0,1,2.36-1.59,14.46,14.46,0,0,1,1.86-1,3.75,3.75,0,0,0,.49-.25c.41-.27.85-.47,1.28-.71a4.32,4.32,0,0,1,1.14-.56.63.63,0,0,0,.24-.13,15.37,15.37,0,0,1,1.71-.88c1.08-.51,2.17-1,3.24-1.53s2.21-1.06,3.33-1.53a9,9,0,0,1,.94-.36,22.54,22.54,0,0,1,6-1.07l1.56-.05a24.77,24.77,0,0,1,3.75.16l1.52.19v-1.27a35.41,35.41,0,0,0-6.59-.37,29.78,29.78,0,0,0-4.11.39,18.07,18.07,0,0,0-4.13,1.19l-.64.28c-.38.17-.75.33-1.11.51h-.05l-1.52.74-.72.35c-.43.2-.84.41-1.27.6a29.44,29.44,0,0,0-4,2.09l-.08,0c-1.24.72-2.49,1.43-3.72,2.18a31.13,31.13,0,0,0-4.09,2.9l-.24.2-.49.42c-.39.35-.79.67-1.18,1a.5.5,0,0,1-.17.1.42.42,0,0,1-.4-.16,10,10,0,0,1-.9-1.26.15.15,0,0,1,0-.09c0-.09,0-.19.08-.25a1.23,1.23,0,0,1,.28-.23s.06,0,.09-.06a11.33,11.33,0,0,0,1.32-1l.22-.18.48-.43a3.35,3.35,0,0,1,.73-.52.92.92,0,0,0,.22-.17,14.3,14.3,0,0,1,1.83-1.37c.9-.58,1.8-1.15,2.75-1.64.52-.26,1-.55,1.52-.84s1.29-.72,1.9-1.11,1.27-.74,1.86-1.16l.23-.17a1.41,1.41,0,0,1,.67-.26.39.39,0,0,0,.16-.07l1.11-.66c.24-.14.47-.28.71-.44a10.28,10.28,0,0,1,1.37-.68l.36-.14.43-.14a3.13,3.13,0,0,0,1.08-.5.8.8,0,0,1,.25-.11c.32-.11.63-.23,1-.33l.17-.06q.38-.12.75-.27a4.6,4.6,0,0,1,1.36-.34.32.32,0,0,0,.18-.06,2.44,2.44,0,0,1,.88-.23c.42-.07.85-.1,1.26-.18a12.39,12.39,0,0,1,1.92-.13,3.53,3.53,0,0,0,.46,0c1.43-.12,2.87-.11,4.31-.11a6.19,6.19,0,0,1,.74,0,18.49,18.49,0,0,1,2.75.43v-.72l-.38-.09A14.25,14.25,0,0,0,234.45,378.05Zm0,0" transform="translate(-164.1 -372.05)"/><path class="cls-6" d="M232,385a21.8,21.8,0,0,0-4,.18,2.63,2.63,0,0,0-.62.13,13.27,13.27,0,0,1-2,.52,19.08,19.08,0,0,0-3.46,1.18c-.43.18-.86.34-1.29.5s-.94.3-1.37.52a13.15,13.15,0,0,1-1.63.83.7.7,0,0,0-.23.15,2.63,2.63,0,0,1-.63.41l-.22.13-.32.2c-.57.35-1.14.68-1.69,1.07a23.44,23.44,0,0,1-2.06,1.34,6.68,6.68,0,0,0-.74.54,12.38,12.38,0,0,1-1,.78,16.88,16.88,0,0,0-1.42,1l-.79.61c-.54.41-1.08.79-1.58,1.22h0c-.23.2-.45.42-.67.64a2.5,2.5,0,0,1-.58.43.58.58,0,0,0-.13.14.54.54,0,0,0-.09.59,6.59,6.59,0,0,0,.33.65s.1.07.16.05a.74.74,0,0,0,.24-.11c.15-.14.31-.27.47-.4l.69-.59.51-.44a13,13,0,0,1,1.32-1,18.82,18.82,0,0,0,2.29-1.66,4.6,4.6,0,0,1,.51-.39c1.34-.91,2.68-1.83,4-2.77l.14-.1a16.66,16.66,0,0,1,1.43-.93,9.71,9.71,0,0,1,1-.53,11.36,11.36,0,0,0,1.12-.63l.24-.13a13.32,13.32,0,0,0,2.59-1.14,6,6,0,0,1,1.7-.62,7.79,7.79,0,0,0,1.5-.43,1.35,1.35,0,0,1,.52-.15,6.64,6.64,0,0,0,1.24-.32c.44-.13.89-.21,1.33-.34a3.66,3.66,0,0,1,1.43-.15,2.29,2.29,0,0,0,.64,0,4.58,4.58,0,0,1,1.73,0c.61.12,1.22.15,1.82.23s1,0,1.46.06l1.55.17v-.82c-.48-.05-1-.12-1.44-.2C234.63,385.14,233.32,385.06,232,385Zm0,0" transform="translate(-164.1 -372.05)"/><path class="cls-6" d="M167,386.56a3.75,3.75,0,0,0,1,.18c.43.05.85.13,1.28.15a5,5,0,0,1,1.32.35l.36.09a7.39,7.39,0,0,1,1,.36c.41.21.87.3,1.26.55a2.31,2.31,0,0,1,1.15.54.41.41,0,0,0,.61-.18,1.34,1.34,0,0,1,.06-.12l0-.05c.16-.6.38-1.19.57-1.78,0-.11.07-.21.1-.32a1.11,1.11,0,0,0-.23-1.26,1,1,0,0,0-.53-.48c-.49-.25-1-.52-1.45-.78a6.63,6.63,0,0,0-.59-.31l-.57-.24c-.57-.2-1.16-.39-1.73-.6-.32-.12-.64-.22-1-.32a28.69,28.69,0,0,0-4.21-.91h0v1.27c.74.1,1.47.22,2.2.37a38.8,38.8,0,0,1,4,1.12l.1,0a19.16,19.16,0,0,1,3.09,1.41l.08,0a.42.42,0,0,1,.23.32.34.34,0,0,1,0,.14c-.11.35-.22.7-.34,1,0,.05-.09.08-.17.16a2.59,2.59,0,0,0-.38-.17c-.48-.19-1-.32-1.48-.48a19.58,19.58,0,0,0-4.16-.71,8.78,8.78,0,0,1-1-.12c-.26-.05-.54-.08-.81-.11l-1.29-.16v.81l1.18.13A.81.81,0,0,1,167,386.56Zm0,0" transform="translate(-164.1 -372.05)"/><path class="cls-6" d="M166.28,379.42l.44.09c.93.19,1.85.41,2.76.69a2.8,2.8,0,0,0,.31.09c.45.14.91.27,1.37.38a2,2,0,0,1,.69.24,2.58,2.58,0,0,0,.93.36.87.87,0,0,1,.42.18,3.25,3.25,0,0,0,.81.41,10.07,10.07,0,0,1,1,.44l.74.38c.29.17.59.3.88.44l.1-.06a6.13,6.13,0,0,0,.27-.92,17.78,17.78,0,0,0,.38-2.22,4.6,4.6,0,0,0-1.43-1.38c-.37-.21-.73-.46-1.09-.68a20.78,20.78,0,0,0-2.83-1.51l-.12-.06c-.75-.3-1.5-.63-2.24-1a10.29,10.29,0,0,0-1.1-.4l-.64-.2a22.38,22.38,0,0,0-2.44-.48.08.08,0,0,0-.07,0v1.14a20.23,20.23,0,0,1,3.51.79,10.67,10.67,0,0,1,1.11.44l.43.19c.62.27,1.23.53,1.84.81l1,.48.36.19c.75.41,1.44.89,2.15,1.35.89.57.89.51.63,1.65,0,0,0,.07,0,.11a.84.84,0,0,1-.06.14c0,.05-.08.09-.13.14-.39-.17-.78-.34-1.18-.49l-1.28-.46-.53-.21a10.25,10.25,0,0,0-2.36-.73c-.24,0-.48-.12-.71-.19l-1.48-.38c-.81-.2-1.63-.38-2.45-.53l-.63-.13-.16,0v.72l.22.06C165.85,379.35,166.07,379.37,166.28,379.42Zm0,0" transform="translate(-164.1 -372.05)"/><path class="cls-7" d="M389,431.3H331.25l28.85-50.25Zm-55-1.54h52.38L360.1,384.15Zm0,0" transform="translate(-164.1 -372.05)"/><path class="cls-8" d="M166.05,451.39a2.1,2.1,0,0,1,1.53.59l-.39.47a1.51,1.51,0,0,0-1.14-.45,1.24,1.24,0,0,0-1,.43,1.28,1.28,0,0,0-.26.66,11.63,11.63,0,0,0,0,1.25,11.41,11.41,0,0,0,0,1.24,1.25,1.25,0,0,0,.26.65,1.17,1.17,0,0,0,1,.44,1.23,1.23,0,0,0,1-.44,1.31,1.31,0,0,0,.23-.55,5.33,5.33,0,0,0,.07-.95h-1.21v-.59H168a13.9,13.9,0,0,1-.07,1.59,1.77,1.77,0,0,1-.36.86,2,2,0,0,1-3.06,0,1.71,1.71,0,0,1-.36-.83,11.9,11.9,0,0,1-.06-1.42c0-.44,0-.75,0-.95a2.79,2.79,0,0,1,.1-.67,1.83,1.83,0,0,1,.32-.64A1.79,1.79,0,0,1,166.05,451.39Zm0,0" transform="translate(-164.1 -372.05)"/><path class="cls-8" d="M171.61,452.06v2.34h1.11a2.18,2.18,0,0,0,.4-.08.81.81,0,0,0,.38-.22,1.09,1.09,0,0,0,.34-.86,1.12,1.12,0,0,0-.34-.87.94.94,0,0,0-.52-.25,5.69,5.69,0,0,0-.86-.05Zm-.64-.61h1.15l.69,0a2.36,2.36,0,0,1,.56.12,1.6,1.6,0,0,1,1.11,1.64,1.83,1.83,0,0,1-.26,1,1.57,1.57,0,0,1-.67.61l1,2.42h-.69l-.93-2.25a5.15,5.15,0,0,1-.82,0h-.51v2.24H171Zm0,0" transform="translate(-164.1 -372.05)"/><path class="cls-8" d="M177.35,451.45H178v4a2,2,0,0,0,.08.45,1.13,1.13,0,0,0,.21.41,1.11,1.11,0,0,0,.86.34,1.09,1.09,0,0,0,.86-.34,1,1,0,0,0,.21-.41,1.55,1.55,0,0,0,.07-.45c0-.15,0-.37,0-.66v-3.36h.64v3.36c0,.25,0,.45,0,.58a3.28,3.28,0,0,1-.05.47,1.69,1.69,0,0,1-.13.48,1.4,1.4,0,0,1-.26.39,1.71,1.71,0,0,1-1.35.55,1.68,1.68,0,0,1-1.34-.55,1.44,1.44,0,0,1-.27-.39,2.74,2.74,0,0,1-.14-.48c0-.19,0-.35,0-.47v-3.94Zm0,0" transform="translate(-164.1 -372.05)"/><path class="cls-8" d="M183.94,451.45h1l.69,0a2.6,2.6,0,0,1,.58.12,1.7,1.7,0,0,1,.59.33,1.8,1.8,0,0,1,.58,1.41,1.73,1.73,0,0,1-.58,1.37,1.45,1.45,0,0,1-.59.34,2.21,2.21,0,0,1-.58.13h-1.08v2.05h-.64Zm.64.61v2.52h1a2.18,2.18,0,0,0,.4-.08,1.06,1.06,0,0,0,.41-.24,1.18,1.18,0,0,0,.39-.95,1.19,1.19,0,0,0-.39-.95,1,1,0,0,0-.53-.25,6,6,0,0,0-.88-.05Zm0,0" transform="translate(-164.1 -372.05)"/><path class="cls-8" d="M190.79,454.34v.8a3.44,3.44,0,0,0,.06.53,1.57,1.57,0,0,0,.17.45,1.16,1.16,0,0,0,1.09.55,1.18,1.18,0,0,0,1.11-.55,1.38,1.38,0,0,0,.19-.62c0-.25,0-.64,0-1.16,0-.36,0-.63,0-.8a3.14,3.14,0,0,0-.05-.51,1.36,1.36,0,0,0-.16-.47,1.17,1.17,0,0,0-1.11-.56,1.15,1.15,0,0,0-1.09.56,1.42,1.42,0,0,0-.2.62C190.79,453.43,190.79,453.81,190.79,454.34Zm-.65,0c0-.42,0-.73,0-.91a4.74,4.74,0,0,1,.08-.6,2,2,0,0,1,.22-.58,1.8,1.8,0,0,1,.68-.63,2.1,2.1,0,0,1,1-.23,2.13,2.13,0,0,1,1,.23,1.91,1.91,0,0,1,.69.63,2.3,2.3,0,0,1,.25.78,12.28,12.28,0,0,1,.06,1.31c0,.42,0,.72,0,.91a3.75,3.75,0,0,1-.09.61,1.76,1.76,0,0,1-.2.56,1.85,1.85,0,0,1-.69.64,2.12,2.12,0,0,1-1,.22,2.1,2.1,0,0,1-1-.22,1.75,1.75,0,0,1-.68-.64,1.7,1.7,0,0,1-.27-.75C190.16,455.39,190.14,455,190.14,454.34Zm0,0" transform="translate(-164.1 -372.05)"/><path class="cls-8" d="M201,451.45h.93l.6,0a3.41,3.41,0,0,1,.5,0,1.77,1.77,0,0,1,.56.19,1.84,1.84,0,0,1,.45.34,2.08,2.08,0,0,1,.35.46,1.73,1.73,0,0,1,.17.58,3.06,3.06,0,0,1,.06.56c0,.15,0,.39,0,.7s0,.55,0,.7a3.36,3.36,0,0,1-.06.58,1.68,1.68,0,0,1-.17.56,2.08,2.08,0,0,1-.35.46,1.45,1.45,0,0,1-.45.34,1.74,1.74,0,0,1-.56.17l-.5.07H201Zm.64.61v4.56h1a2.28,2.28,0,0,0,.5-.11,1.32,1.32,0,0,0,.48-.28,1.16,1.16,0,0,0,.3-.5,2.43,2.43,0,0,0,.11-.55c0-.16,0-.44,0-.83s0-.66,0-.83a2.16,2.16,0,0,0-.11-.54,1.1,1.1,0,0,0-.3-.5,1.21,1.21,0,0,0-.48-.29,1.47,1.47,0,0,0-.5-.1l-.66,0Zm0,0" transform="translate(-164.1 -372.05)"/><path class="cls-8" d="M207.56,451.45h3.2v.61H208.2V454h2v.61h-2v2.06h2.56v.61h-3.2Zm0,0" transform="translate(-164.1 -372.05)"/><path class="cls-8" d="M217.63,451.45h1l.69,0a2.6,2.6,0,0,1,.58.12,1.8,1.8,0,0,1,.59.33,1.83,1.83,0,0,1,.58,1.41,1.76,1.76,0,0,1-.58,1.37,1.52,1.52,0,0,1-.59.34,2.21,2.21,0,0,1-.58.13h-1.08v2.05h-.64Zm.64.61v2.52h1a2.35,2.35,0,0,0,.4-.08,1.06,1.06,0,0,0,.41-.24,1.18,1.18,0,0,0,.39-.95,1.19,1.19,0,0,0-.39-.95,1,1,0,0,0-.53-.25,6,6,0,0,0-.88-.05Zm0,0" transform="translate(-164.1 -372.05)"/><path class="cls-8" d="M223.93,451.45h3.2v.61h-2.56V454h2v.61h-2v2.06h2.56v.61h-3.2Zm0,0" transform="translate(-164.1 -372.05)"/><path class="cls-8" d="M231.58,451.39a2.49,2.49,0,0,1,1.56.5l-.33.51a1.84,1.84,0,0,0-1.23-.4,1.19,1.19,0,0,0-.82.26.82.82,0,0,0,.1,1.28,2.39,2.39,0,0,0,.83.38,3.19,3.19,0,0,1,1.17.55,1.52,1.52,0,0,1,.58,1.2,1.54,1.54,0,0,1-.5,1.14,1.9,1.9,0,0,1-1.36.47,2.71,2.71,0,0,1-1.72-.58l.36-.5a2.08,2.08,0,0,0,1.36.47,1.22,1.22,0,0,0,.9-.3,1,1,0,0,0,.32-.7,1,1,0,0,0-.39-.78,3,3,0,0,0-1-.42,2.87,2.87,0,0,1-1-.49,1.47,1.47,0,0,1-.4-.48,1.39,1.39,0,0,1-.15-.63,1.32,1.32,0,0,1,.47-1A1.75,1.75,0,0,1,231.58,451.39Zm0,0" transform="translate(-164.1 -372.05)"/><path class="cls-8" d="M236.17,454.34c0-.42,0-.73,0-.91a4.74,4.74,0,0,1,.08-.6,2,2,0,0,1,.22-.58,1.76,1.76,0,0,1,.69-.63,2,2,0,0,1,1-.23,2.13,2.13,0,0,1,1,.23,1.91,1.91,0,0,1,.69.63,2.3,2.3,0,0,1,.25.78,10.06,10.06,0,0,1,.06,1.31c0,.42,0,.72,0,.91a3.75,3.75,0,0,1-.09.61,1.76,1.76,0,0,1-.2.56,1.62,1.62,0,0,1-.5.51l.92.61-.33.52-1.23-.84a2.23,2.23,0,0,1-.54.06,2,2,0,0,1-1-.22,1.84,1.84,0,0,1-1-1.39C236.18,455.39,236.17,455,236.17,454.34Zm.64,0v.8a3.44,3.44,0,0,0,.06.53,1.57,1.57,0,0,0,.17.45,1.16,1.16,0,0,0,1.09.55,1.18,1.18,0,0,0,1.11-.55,1.26,1.26,0,0,0,.19-.62c0-.25,0-.64,0-1.16,0-.36,0-.63,0-.8a3.14,3.14,0,0,0,0-.51,1.36,1.36,0,0,0-.16-.47,1.17,1.17,0,0,0-1.11-.56,1.15,1.15,0,0,0-1.09.56,1.42,1.42,0,0,0-.2.62C236.81,453.43,236.81,453.81,236.81,454.34Zm0,0" transform="translate(-164.1 -372.05)"/><path class="cls-8" d="M243,451.45h.64v4a2.86,2.86,0,0,0,.08.45,1,1,0,0,0,.22.41,1.09,1.09,0,0,0,.86.34,1.11,1.11,0,0,0,.86-.34,1,1,0,0,0,.2-.41,1.59,1.59,0,0,0,.08-.45c0-.15,0-.37,0-.66v-3.36h.64v3.36c0,.25,0,.45,0,.58a3.28,3.28,0,0,1,0,.47,1.69,1.69,0,0,1-.12.48,1.44,1.44,0,0,1-.27.39,1.92,1.92,0,0,1-2.69,0,1.4,1.4,0,0,1-.26-.39,2.09,2.09,0,0,1-.14-.48c0-.19,0-.35,0-.47v-3.94Zm0,0" transform="translate(-164.1 -372.05)"/><path class="cls-8" d="M250.26,451.45v5.78h-.64v-5.78Zm0,0" transform="translate(-164.1 -372.05)"/><path class="cls-8" d="M254.78,451.39a2.5,2.5,0,0,1,1.57.5l-.33.51a1.88,1.88,0,0,0-1.24-.4,1.18,1.18,0,0,0-.81.26.79.79,0,0,0-.26.6.81.81,0,0,0,.35.68,2.49,2.49,0,0,0,.83.38,3.19,3.19,0,0,1,1.17.55,1.49,1.49,0,0,1,.58,1.2,1.54,1.54,0,0,1-.5,1.14,1.87,1.87,0,0,1-1.36.47,2.71,2.71,0,0,1-1.72-.58l.36-.5a2.12,2.12,0,0,0,1.36.47,1.23,1.23,0,0,0,.91-.3.94.94,0,0,0,.31-.7,1,1,0,0,0-.39-.78,3,3,0,0,0-1-.42,3,3,0,0,1-1-.49,1.44,1.44,0,0,1-.39-.48,1.4,1.4,0,0,1-.16-.63,1.36,1.36,0,0,1,.47-1A1.78,1.78,0,0,1,254.78,451.39Zm0,0" transform="translate(-164.1 -372.05)"/><path class="cls-8" d="M258.93,457.23l2-5.78h.51l2,5.78h-.67l-.47-1.44h-2.19l-.45,1.44Zm3.14-2.05-.9-2.82-.91,2.82Zm0,0" transform="translate(-164.1 -372.05)"/><path class="cls-8" d="M269.83,451.45H273v.61h-2.56V454h2v.61h-2v2.06H273v.61h-3.21Zm0,0" transform="translate(-164.1 -372.05)"/><path class="cls-8" d="M276,451.45h.56l1.83,3.58,1.81-3.58h.57v5.78h-.64v-4.36l-1.47,2.92h-.55l-1.47-2.9v4.34H276Zm0,0" transform="translate(-164.1 -372.05)"/><path class="cls-8" d="M289.58,451.39a2.14,2.14,0,0,1,1.54.59l-.39.47a1.55,1.55,0,0,0-1.15-.45,1.24,1.24,0,0,0-1,.43,1.37,1.37,0,0,0-.26.66,11.63,11.63,0,0,0-.05,1.25,11.41,11.41,0,0,0,.05,1.24,1.34,1.34,0,0,0,.26.65,1.19,1.19,0,0,0,1,.44,1.23,1.23,0,0,0,1-.44,1.31,1.31,0,0,0,.23-.55,5.33,5.33,0,0,0,.07-.95h-1.21v-.59h1.85c0,.74,0,1.27-.06,1.59a2,2,0,0,1-.36.86,2.05,2.05,0,0,1-3.07,0,1.71,1.71,0,0,1-.36-.83,11.9,11.9,0,0,1-.06-1.42c0-.44,0-.75,0-.95a2.83,2.83,0,0,1,.11-.67,1.82,1.82,0,0,1,.31-.64A1.79,1.79,0,0,1,289.58,451.39Zm0,0" transform="translate(-164.1 -372.05)"/><path class="cls-8" d="M294.5,451.45h3.2v.61h-2.56V454h2.05v.61h-2.05v2.06h2.56v.61h-3.2Zm0,0" transform="translate(-164.1 -372.05)"/><path class="cls-8" d="M301.21,454.34v.8a3.51,3.51,0,0,0,.07.53,1.14,1.14,0,0,0,.17.45,1.16,1.16,0,0,0,1.09.55,1.18,1.18,0,0,0,1.11-.55,1.51,1.51,0,0,0,.19-.62c0-.25,0-.64,0-1.16,0-.36,0-.63,0-.8a3.08,3.08,0,0,0,0-.51,1.36,1.36,0,0,0-.16-.47,1.17,1.17,0,0,0-1.11-.56,1.15,1.15,0,0,0-1.09.56,1.56,1.56,0,0,0-.21.62C301.22,453.43,301.21,453.81,301.21,454.34Zm-.64,0c0-.42,0-.73,0-.91a3.42,3.42,0,0,1,.08-.6,2.33,2.33,0,0,1,.21-.58,1.91,1.91,0,0,1,.69-.63,2.1,2.1,0,0,1,1-.23,2.19,2.19,0,0,1,1,.23,2,2,0,0,1,.68.63,1.93,1.93,0,0,1,.25.78,9.63,9.63,0,0,1,.07,1.31c0,.42,0,.72,0,.91a3.75,3.75,0,0,1-.09.61,1.77,1.77,0,0,1-.21.56,1.9,1.9,0,0,1-.68.64,2.18,2.18,0,0,1-1,.22,2.1,2.1,0,0,1-1-.22,1.85,1.85,0,0,1-.69-.64,1.82,1.82,0,0,1-.26-.75C300.59,455.39,300.57,455,300.57,454.34Zm0,0" transform="translate(-164.1 -372.05)"/><path class="cls-8" d="M309.33,451.39a2.14,2.14,0,0,1,1.54.59l-.4.47a1.51,1.51,0,0,0-1.14-.45,1.24,1.24,0,0,0-1,.43,1.37,1.37,0,0,0-.26.66,11.63,11.63,0,0,0-.05,1.25,11.41,11.41,0,0,0,.05,1.24,1.34,1.34,0,0,0,.26.65,1.17,1.17,0,0,0,1,.44,1.23,1.23,0,0,0,1-.44,1.31,1.31,0,0,0,.23-.55,5.33,5.33,0,0,0,.07-.95h-1.21v-.59h1.85a13.9,13.9,0,0,1-.07,1.59,1.77,1.77,0,0,1-1.89,1.55,1.82,1.82,0,0,1-1.53-.69,1.71,1.71,0,0,1-.36-.83,11.9,11.9,0,0,1-.06-1.42c0-.44,0-.75,0-.95a2.4,2.4,0,0,1,.11-.67,1.82,1.82,0,0,1,.31-.64A1.79,1.79,0,0,1,309.33,451.39Zm0,0" transform="translate(-164.1 -372.05)"/><path class="cls-8" d="M314.89,452.06v2.34H316a2.18,2.18,0,0,0,.4-.08.81.81,0,0,0,.38-.22,1.09,1.09,0,0,0,.34-.86,1.12,1.12,0,0,0-.34-.87.94.94,0,0,0-.52-.25,5.69,5.69,0,0,0-.86-.05Zm-.64-.61h1.15l.69,0a2.26,2.26,0,0,1,.56.12,1.66,1.66,0,0,1,.58.33,1.76,1.76,0,0,1,.53,1.31,1.83,1.83,0,0,1-.26,1,1.57,1.57,0,0,1-.67.61l1,2.42h-.69l-.93-2.25a5.15,5.15,0,0,1-.82,0h-.51v2.24h-.64Zm0,0" transform="translate(-164.1 -372.05)"/><path class="cls-8" d="M320.14,457.23l2-5.78h.51l2,5.78h-.67l-.47-1.44h-2.19l-.45,1.44Zm3.14-2.05-.9-2.82-.91,2.82Zm0,0" transform="translate(-164.1 -372.05)"/><path class="cls-8" d="M327.14,451.45h3.12v.61h-2.48V454h2v.61h-2v2.67h-.64Zm0,0" transform="translate(-164.1 -372.05)"/><path class="cls-8" d="M333.81,451.45v5.78h-.64v-5.78Zm0,0" transform="translate(-164.1 -372.05)"/><path class="cls-8" d="M336.32,457.23l2-5.78h.51l2,5.78h-.67l-.47-1.44h-2.19l-.45,1.44Zm3.14-2.05-.9-2.82-.91,2.82Zm0,0" transform="translate(-164.1 -372.05)"/><path class="cls-8" d="M347.23,451.45h.64V454h2.53v-2.5H351v5.78h-.64v-2.67h-2.53v2.67h-.64Zm0,0" transform="translate(-164.1 -372.05)"/><path class="cls-8" d="M354,451.45h.64v4a2,2,0,0,0,.08.45,1,1,0,0,0,.22.41,1.08,1.08,0,0,0,.86.34,1.12,1.12,0,0,0,.86-.34,1,1,0,0,0,.2-.41,1.59,1.59,0,0,0,.08-.45c0-.15,0-.37,0-.66v-3.36h.64v3.36c0,.25,0,.45,0,.58a3.28,3.28,0,0,1-.05.47,1.82,1.82,0,0,1-3.08.87,1.4,1.4,0,0,1-.26-.39,1.69,1.69,0,0,1-.14-.48c0-.19,0-.35,0-.47v-3.94Zm0,0" transform="translate(-164.1 -372.05)"/><path class="cls-8" d="M360.63,451.45h.57L363,455l1.81-3.58h.56v5.78h-.64v-4.36l-1.47,2.92h-.55l-1.46-2.9v4.34h-.65Zm0,0" transform="translate(-164.1 -372.05)"/><path class="cls-8" d="M367.92,457.23l2-5.78h.52l2,5.78h-.67l-.47-1.44h-2.19l-.45,1.44Zm3.14-2.05-.91-2.82-.9,2.82Zm0,0" transform="translate(-164.1 -372.05)"/><path class="cls-8" d="M374.91,451.45h.56l2.61,4.5v-4.5h.64v5.78h-.56l-2.61-4.51v4.51h-.64Zm0,0" transform="translate(-164.1 -372.05)"/><path class="cls-8" d="M381.24,457.23l2-5.78h.51l2,5.78H385l-.47-1.44h-2.19l-.45,1.44Zm3.14-2.05-.9-2.82-.91,2.82Zm0,0" transform="translate(-164.1 -372.05)"/><path class="cls-8" d="M391.61,457.23l2-5.78h.51l2,5.78h-.67l-.47-1.44h-2.19l-.45,1.44Zm3.14-2.05-.9-2.82-.91,2.82Zm0,0" transform="translate(-164.1 -372.05)"/><path class="cls-8" d="M398.6,451.45h1l.68,0a2.6,2.6,0,0,1,.58.12,1.62,1.62,0,0,1,.59.33,1.8,1.8,0,0,1,.58,1.41,1.73,1.73,0,0,1-.58,1.37,1.39,1.39,0,0,1-.59.34,2.21,2.21,0,0,1-.58.13h-1.08v2.05h-.64Zm.64.61v2.52h1a2.45,2.45,0,0,0,.41-.08,1.1,1.1,0,0,0,.4-.24,1.18,1.18,0,0,0,.39-.95,1.19,1.19,0,0,0-.39-.95,1,1,0,0,0-.53-.25,5.94,5.94,0,0,0-.87-.05Zm0,0" transform="translate(-164.1 -372.05)"/><path class="cls-8" d="M404.9,451.45h.64v5.17h2.39v.61h-3Zm0,0" transform="translate(-164.1 -372.05)"/><path class="cls-8" d="M411.45,451.45v5.78h-.64v-5.78Zm0,0" transform="translate(-164.1 -372.05)"/><path class="cls-8" d="M416.35,451.39a2.14,2.14,0,0,1,1.53.59l-.39.47a1.51,1.51,0,0,0-1.14-.45,1.21,1.21,0,0,0-1,.43,1.29,1.29,0,0,0-.27.66,12.37,12.37,0,0,0,0,1.25,12.14,12.14,0,0,0,0,1.24,1.26,1.26,0,0,0,.27.65,1.17,1.17,0,0,0,1,.44,1.49,1.49,0,0,0,1.2-.5l.44.42a1.9,1.9,0,0,1-.7.5,2.32,2.32,0,0,1-.94.19,1.8,1.8,0,0,1-1.53-.69,1.71,1.71,0,0,1-.36-.83,10.07,10.07,0,0,1-.06-1.42c0-.44,0-.75,0-.95a3.46,3.46,0,0,1,.11-.67,2,2,0,0,1,.31-.64A1.8,1.8,0,0,1,416.35,451.39Zm0,0" transform="translate(-164.1 -372.05)"/><path class="cls-8" d="M420.33,457.23l2-5.78h.51l2,5.78h-.67l-.47-1.44h-2.19l-.45,1.44Zm3.14-2.05-.9-2.82-.91,2.82Zm0,0" transform="translate(-164.1 -372.05)"/><path class="cls-8" d="M427.32,451.45h.94l.6,0a3.41,3.41,0,0,1,.5,0,1.77,1.77,0,0,1,.56.19,1.84,1.84,0,0,1,.45.34,2.08,2.08,0,0,1,.35.46,1.73,1.73,0,0,1,.17.58,3.06,3.06,0,0,1,.06.56c0,.15,0,.39,0,.7s0,.55,0,.7a3.36,3.36,0,0,1-.06.58,1.68,1.68,0,0,1-.17.56,2.08,2.08,0,0,1-.35.46,1.45,1.45,0,0,1-.45.34,1.74,1.74,0,0,1-.56.17l-.5.07h-1.54Zm.65.61v4.56h.95a2.28,2.28,0,0,0,.5-.11,1.32,1.32,0,0,0,.48-.28,1.16,1.16,0,0,0,.3-.5,2.43,2.43,0,0,0,.11-.55c0-.16,0-.44,0-.83s0-.66,0-.83a2.16,2.16,0,0,0-.11-.54,1.1,1.1,0,0,0-.3-.5,1.21,1.21,0,0,0-.48-.29,1.47,1.47,0,0,0-.5-.1l-.66,0Zm0,0" transform="translate(-164.1 -372.05)"/><path class="cls-8" d="M433.39,457.23l2-5.78h.51l2,5.78h-.67l-.47-1.44h-2.19l-.45,1.44Zm3.14-2.05-.9-2.82-.91,2.82Zm0,0" transform="translate(-164.1 -372.05)"/><path class="cls-8" d="M185.77,464h.64v4a1.94,1.94,0,0,0,.08.45,1.06,1.06,0,0,0,.21.41,1.11,1.11,0,0,0,.86.34,1.09,1.09,0,0,0,.86-.34.94.94,0,0,0,.21-.41,1.5,1.5,0,0,0,.07-.45c0-.15,0-.36,0-.66V464h.64v3.36c0,.25,0,.45,0,.58a3.14,3.14,0,0,1,0,.47,1.5,1.5,0,0,1-.39.87,1.71,1.71,0,0,1-1.35.55,1.68,1.68,0,0,1-1.34-.55,1.44,1.44,0,0,1-.27-.39,2.74,2.74,0,0,1-.14-.48c0-.19,0-.34,0-.47V464Zm0,0" transform="translate(-164.1 -372.05)"/><path class="cls-8" d="M192.36,464h.57l2.6,4.5V464h.65v5.78h-.57L193,465.28v4.51h-.64Zm0,0" transform="translate(-164.1 -372.05)"/><path class="cls-8" d="M199.86,464v5.78h-.64V464Zm0,0" transform="translate(-164.1 -372.05)"/><path class="cls-8" d="M204.94,469.79h-.61L202.47,464h.67l1.48,4.86,1.5-4.86h.68Zm0,0" transform="translate(-164.1 -372.05)"/><path class="cls-8" d="M209.4,464h3.21v.61H210v1.89h2.05v.61H210v2.07h2.57v.6H209.4Zm0,0" transform="translate(-164.1 -372.05)"/><path class="cls-8" d="M216.21,464.62V467h.51l.6,0a1.57,1.57,0,0,0,.4-.08.81.81,0,0,0,.38-.22,1.08,1.08,0,0,0,.34-.86,1.12,1.12,0,0,0-.34-.87,1,1,0,0,0-.52-.25,5.69,5.69,0,0,0-.86-.05Zm-.64-.61h1.15l.69,0a2.26,2.26,0,0,1,.56.12,1.94,1.94,0,0,1,.58.33,1.77,1.77,0,0,1,.53,1.31,1.83,1.83,0,0,1-.26,1,1.51,1.51,0,0,1-.67.61l1,2.42h-.69l-.93-2.25a4.75,4.75,0,0,1-.82,0h-.51v2.23h-.64Zm0,0" transform="translate(-164.1 -372.05)"/><path class="cls-8" d="M223.48,464a2.49,2.49,0,0,1,1.56.5l-.33.52a1.84,1.84,0,0,0-1.23-.41,1.1,1.1,0,0,0-.81.27.76.76,0,0,0-.27.59.85.85,0,0,0,.36.69,2.64,2.64,0,0,0,.83.37,3.19,3.19,0,0,1,1.17.55,1.54,1.54,0,0,1,.08,2.34,1.86,1.86,0,0,1-1.36.47,2.71,2.71,0,0,1-1.72-.58l.36-.5a2,2,0,0,0,1.36.47,1.27,1.27,0,0,0,.91-.29,1,1,0,0,0,.31-.71,1,1,0,0,0-.39-.78,3.52,3.52,0,0,0-1-.42,2.71,2.71,0,0,1-1-.49,1.33,1.33,0,0,1-.39-.48,1.25,1.25,0,0,1-.16-.62,1.36,1.36,0,0,1,.47-1.05A1.76,1.76,0,0,1,223.48,464Zm0,0" transform="translate(-164.1 -372.05)"/><path class="cls-8" d="M228.8,464v5.78h-.64V464Zm0,0" transform="translate(-164.1 -372.05)"/><path class="cls-8" d="M231.84,464h.94l.59,0a2.41,2.41,0,0,1,.5.05,1.73,1.73,0,0,1,.57.18,1.83,1.83,0,0,1,.45.35,2,2,0,0,1,.34.45,1.8,1.8,0,0,1,.18.58,3.15,3.15,0,0,1,.06.56c0,.16,0,.39,0,.7s0,.55,0,.71a3.56,3.56,0,0,1-.06.58,1.84,1.84,0,0,1-.18.56,2,2,0,0,1-.34.45,1.57,1.57,0,0,1-.45.34,1.73,1.73,0,0,1-.57.18l-.5.06h-1.53Zm.64.61v4.57h.3l.66,0a2.28,2.28,0,0,0,.5-.11,1.15,1.15,0,0,0,.78-.78,2.43,2.43,0,0,0,.11-.55c0-.16,0-.44,0-.83s0-.66,0-.82a2.24,2.24,0,0,0-.11-.55,1.26,1.26,0,0,0-.3-.5,1.09,1.09,0,0,0-.48-.28,1.51,1.51,0,0,0-.5-.11l-.66,0Zm0,0" transform="translate(-164.1 -372.05)"/><path class="cls-8" d="M237.91,469.79l2-5.78h.51l2,5.78h-.67l-.47-1.43h-2.19l-.45,1.43Zm3.14-2-.9-2.83-.91,2.83Zm0,0" transform="translate(-164.1 -372.05)"/><path class="cls-8" d="M244.91,464h.93l.6,0a2.54,2.54,0,0,1,.5.05,1.75,1.75,0,0,1,.56.18,1.66,1.66,0,0,1,.45.35,2,2,0,0,1,.35.45,1.8,1.8,0,0,1,.17.58,3.15,3.15,0,0,1,.06.56c0,.16,0,.39,0,.7s0,.55,0,.71a3.56,3.56,0,0,1-.06.58,1.84,1.84,0,0,1-.17.56,2,2,0,0,1-.35.45,1.45,1.45,0,0,1-.45.34,1.75,1.75,0,0,1-.56.18l-.5.06h-1.53Zm.64.61v4.57h.29l.66,0a2.28,2.28,0,0,0,.5-.11,1.2,1.2,0,0,0,.48-.28,1.1,1.1,0,0,0,.3-.5,2.43,2.43,0,0,0,.11-.55c0-.16,0-.44,0-.83s0-.66,0-.82a2.24,2.24,0,0,0-.11-.55,1.16,1.16,0,0,0-.3-.5,1.09,1.09,0,0,0-.48-.28,1.51,1.51,0,0,0-.5-.11l-.66,0Zm0,0" transform="translate(-164.1 -372.05)"/><path class="cls-8" d="M251.51,464h3.2v.61h-2.56v1.89h2v.61h-2v2.07h2.56v.6h-3.2Zm0,0" transform="translate(-164.1 -372.05)"/><path class="cls-8" d="M261.58,464h3.13v.61h-2.49v1.89h2v.61h-2v2.67h-.64Zm0,0" transform="translate(-164.1 -372.05)"/><path class="cls-8" d="M267.62,464h3.2v.61h-2.56v1.89h2v.61h-2v2.07h2.56v.6h-3.2Zm0,0" transform="translate(-164.1 -372.05)"/><path class="cls-8" d="M273.78,464h.94l.59,0a2.47,2.47,0,0,1,.5.05,1.73,1.73,0,0,1,.57.18,1.83,1.83,0,0,1,.45.35,2,2,0,0,1,.34.45,1.58,1.58,0,0,1,.17.58,3.27,3.27,0,0,1,.07.56c0,.16,0,.39,0,.7s0,.55,0,.71a3.74,3.74,0,0,1-.07.58,1.6,1.6,0,0,1-.17.56,2,2,0,0,1-.34.45,1.57,1.57,0,0,1-.45.34,1.73,1.73,0,0,1-.57.18l-.5.06h-1.53Zm.64.61v4.57h.3l.66,0a2.28,2.28,0,0,0,.5-.11,1.2,1.2,0,0,0,.48-.28,1.31,1.31,0,0,0,.3-.5,2.43,2.43,0,0,0,.11-.55c0-.16,0-.44,0-.83s0-.66,0-.82a2.24,2.24,0,0,0-.11-.55,1.39,1.39,0,0,0-.3-.5,1.09,1.09,0,0,0-.48-.28,1.51,1.51,0,0,0-.5-.11l-.66,0Zm0,0" transform="translate(-164.1 -372.05)"/><path class="cls-8" d="M280.38,464h3.21v.61H281v1.89h2.05v.61H281v2.07h2.57v.6h-3.21Zm0,0" transform="translate(-164.1 -372.05)"/><path class="cls-8" d="M287.19,464.62V467h.52l.59,0a1.73,1.73,0,0,0,.41-.08.83.83,0,0,0,.37-.22,1.08,1.08,0,0,0,.34-.86,1.12,1.12,0,0,0-.34-.87,1,1,0,0,0-.52-.25,5.63,5.63,0,0,0-.85-.05Zm-.64-.61h1.16l.68,0a2.43,2.43,0,0,1,.57.12,1.89,1.89,0,0,1,.57.33,1.77,1.77,0,0,1,.53,1.31,1.83,1.83,0,0,1-.26,1,1.51,1.51,0,0,1-.67.61l1,2.42h-.68l-.94-2.25a4.69,4.69,0,0,1-.81,0h-.52v2.23h-.64Zm0,0" transform="translate(-164.1 -372.05)"/><path class="cls-8" d="M292.44,469.79l2-5.78h.51l2,5.78h-.67l-.47-1.43h-2.18l-.46,1.43Zm3.15-2-.91-2.83-.91,2.83Zm0,0" transform="translate(-164.1 -372.05)"/><path class="cls-8" d="M299.44,464h.64v5.18h2.39v.6h-3Zm0,0" transform="translate(-164.1 -372.05)"/><path class="cls-8" d="M309.25,464h.94l.59,0a2.47,2.47,0,0,1,.5.05,1.6,1.6,0,0,1,.56.18,1.7,1.7,0,0,1,.46.35,2,2,0,0,1,.34.45,1.8,1.8,0,0,1,.17.58,3.27,3.27,0,0,1,.07.56c0,.16,0,.39,0,.7s0,.55,0,.71a3.74,3.74,0,0,1-.07.58,1.84,1.84,0,0,1-.17.56,2,2,0,0,1-.34.45,1.48,1.48,0,0,1-.46.34,1.6,1.6,0,0,1-.56.18l-.5.06h-1.53Zm.64.61v4.57h.3l.65,0a2.06,2.06,0,0,0,.5-.11,1.24,1.24,0,0,0,.49-.28,1.31,1.31,0,0,0,.3-.5,3.14,3.14,0,0,0,.11-.55c0-.16,0-.44,0-.83s0-.66,0-.82a2.82,2.82,0,0,0-.11-.55,1.39,1.39,0,0,0-.3-.5,1.13,1.13,0,0,0-.49-.28,1.42,1.42,0,0,0-.5-.11l-.65,0Zm0,0" transform="translate(-164.1 -372.05)"/><path class="cls-8" d="M315.85,464h3.2v.61h-2.56v1.89h2.05v.61h-2.05v2.07h2.56v.6h-3.2Zm0,0" transform="translate(-164.1 -372.05)"/><path class="cls-8" d="M327.41,464a2.49,2.49,0,0,1,1.56.5l-.33.52a1.84,1.84,0,0,0-1.23-.41,1.13,1.13,0,0,0-.81.27.76.76,0,0,0-.27.59.85.85,0,0,0,.36.69,2.64,2.64,0,0,0,.83.37,3.19,3.19,0,0,1,1.17.55,1.54,1.54,0,0,1,.08,2.34,1.85,1.85,0,0,1-1.36.47,2.71,2.71,0,0,1-1.72-.58l.36-.5a2,2,0,0,0,1.36.47,1.27,1.27,0,0,0,.91-.29,1,1,0,0,0,.31-.71,1,1,0,0,0-.39-.78,3.52,3.52,0,0,0-1-.42,2.88,2.88,0,0,1-1-.49,1.33,1.33,0,0,1-.39-.48,1.25,1.25,0,0,1-.16-.62,1.36,1.36,0,0,1,.47-1.05A1.76,1.76,0,0,1,327.41,464Zm0,0" transform="translate(-164.1 -372.05)"/><path class="cls-8" d="M334.33,463.39a1.35,1.35,0,0,1-.64-.2,1.24,1.24,0,0,0-.41-.13.26.26,0,0,0-.2.08.24.24,0,0,0-.08.19h-.49a.67.67,0,0,1,.22-.52.81.81,0,0,1,.55-.2,1.41,1.41,0,0,1,.62.18,1.14,1.14,0,0,0,.43.15.27.27,0,0,0,.26-.29h.5a.73.73,0,0,1-.23.54A.79.79,0,0,1,334.33,463.39Zm-2.77,6.4,2-5.78h.51l2,5.78h-.67l-.47-1.43H332.7l-.45,1.43Zm3.14-2-.9-2.83-.91,2.83Zm0,0" transform="translate(-164.1 -372.05)"/><path class="cls-8" d="M339.1,466.9v.8c0,.17,0,.34.06.53a1.47,1.47,0,0,0,.18.46,1.16,1.16,0,0,0,1.09.54,1.2,1.2,0,0,0,1.11-.54,1.61,1.61,0,0,0,.19-.63c0-.25,0-.63,0-1.16,0-.36,0-.62,0-.79a2.35,2.35,0,0,0-.05-.52,1.44,1.44,0,0,0-.15-.47,1.19,1.19,0,0,0-1.11-.56,1.16,1.16,0,0,0-1.09.56,1.47,1.47,0,0,0-.21.63C339.11,466,339.1,466.37,339.1,466.9Zm-.64,0c0-.42,0-.72,0-.9a3.46,3.46,0,0,1,.07-.61,2.33,2.33,0,0,1,.22-.58,1.8,1.8,0,0,1,.69-.62,2,2,0,0,1,1-.24,2,2,0,0,1,1,.24,1.8,1.8,0,0,1,.69.62,2.1,2.1,0,0,1,.25.78,10.16,10.16,0,0,1,.06,1.31c0,.42,0,.72,0,.91a3.68,3.68,0,0,1-.1.61,1.68,1.68,0,0,1-.2.56,1.7,1.7,0,0,1-.69.64,2.11,2.11,0,0,1-1,.22,2.07,2.07,0,0,1-1-.22,1.7,1.7,0,0,1-.69-.64,1.6,1.6,0,0,1-.26-.75C338.48,468,338.46,467.51,338.46,466.9Zm0,0" transform="translate(-164.1 -372.05)"/><path class="cls-8" d="M351.24,464h.64v3.52c0,.3,0,.53,0,.69a2.75,2.75,0,0,1-.09.51,1.24,1.24,0,0,1-.25.5,1.57,1.57,0,0,1-1.33.61,2.09,2.09,0,0,1-1.28-.42l.39-.48a1.4,1.4,0,0,0,.89.29.89.89,0,0,0,1-.79,6.49,6.49,0,0,0,.05-.91Zm0,0" transform="translate(-164.1 -372.05)"/><path class="cls-8" d="M355.43,466.9v.8c0,.17,0,.34.06.53a1.77,1.77,0,0,0,.17.46,1.18,1.18,0,0,0,1.1.54,1.2,1.2,0,0,0,1.11-.54,1.46,1.46,0,0,0,.18-.63c0-.25,0-.63,0-1.16,0-.36,0-.62,0-.79a3.15,3.15,0,0,0-.05-.52,1.44,1.44,0,0,0-.15-.47,1.19,1.19,0,0,0-1.11-.56,1.17,1.17,0,0,0-1.1.56,1.61,1.61,0,0,0-.2.63C355.44,466,355.43,466.37,355.43,466.9Zm-.64,0c0-.42,0-.72,0-.9a4.88,4.88,0,0,1,.08-.61,2.33,2.33,0,0,1,.22-.58,1.67,1.67,0,0,1,.69-.62,2,2,0,0,1,1-.24,2,2,0,0,1,1,.24,1.8,1.8,0,0,1,.69.62,2.1,2.1,0,0,1,.25.78,10.16,10.16,0,0,1,.06,1.31c0,.42,0,.72,0,.91a5.14,5.14,0,0,1-.1.61,1.68,1.68,0,0,1-.2.56,1.7,1.7,0,0,1-.69.64,2.11,2.11,0,0,1-1,.22,2.07,2.07,0,0,1-1-.22,1.59,1.59,0,0,1-.69-.64,1.73,1.73,0,0,1-.27-.75C354.8,468,354.79,467.51,354.79,466.9Zm0,0" transform="translate(-164.1 -372.05)"/><path class="cls-8" d="M363.92,463.39a1.42,1.42,0,0,1-.64-.2,1.21,1.21,0,0,0-.4-.13.3.3,0,0,0-.21.08.26.26,0,0,0-.07.19h-.49a.67.67,0,0,1,.22-.52.81.81,0,0,1,.55-.2,1.45,1.45,0,0,1,.62.18,1.17,1.17,0,0,0,.42.15.27.27,0,0,0,.19-.08.29.29,0,0,0,.08-.21h.5a.73.73,0,0,1-.23.54A.8.8,0,0,1,363.92,463.39Zm-2.76,6.4,2-5.78h.52l2,5.78H365l-.47-1.43H362.3l-.45,1.43Zm3.14-2-.91-2.83-.9,2.83Zm0,0" transform="translate(-164.1 -372.05)"/><path class="cls-8" d="M368.7,466.9v.8c0,.17,0,.34.06.53a1.77,1.77,0,0,0,.17.46,1.18,1.18,0,0,0,1.1.54,1.2,1.2,0,0,0,1.11-.54,1.46,1.46,0,0,0,.18-.63c0-.25,0-.63,0-1.16,0-.36,0-.62,0-.79a3.15,3.15,0,0,0,0-.52,1.44,1.44,0,0,0-.15-.47,1.19,1.19,0,0,0-1.11-.56,1.17,1.17,0,0,0-1.1.56,1.61,1.61,0,0,0-.2.63C368.71,466,368.7,466.37,368.7,466.9Zm-.64,0c0-.42,0-.72,0-.9a4.88,4.88,0,0,1,.08-.61,2.33,2.33,0,0,1,.22-.58,1.67,1.67,0,0,1,.69-.62,2,2,0,0,1,1-.24,2,2,0,0,1,1,.24,1.8,1.8,0,0,1,.69.62,2.1,2.1,0,0,1,.25.78,10.16,10.16,0,0,1,.06,1.31c0,.42,0,.72,0,.91a5.14,5.14,0,0,1-.1.61,1.68,1.68,0,0,1-.2.56,1.7,1.7,0,0,1-.69.64,2.11,2.11,0,0,1-1,.22,2.07,2.07,0,0,1-1-.22,1.59,1.59,0,0,1-.69-.64,1.73,1.73,0,0,1-.27-.75C368.07,468,368.06,467.51,368.06,466.9Zm0,0" transform="translate(-164.1 -372.05)"/><path class="cls-8" d="M378.87,464h.94l.59,0a2.54,2.54,0,0,1,.5.05,1.67,1.67,0,0,1,.56.18,1.7,1.7,0,0,1,.46.35,2.32,2.32,0,0,1,.34.45,1.8,1.8,0,0,1,.17.58,3.15,3.15,0,0,1,.06.56c0,.16,0,.39,0,.7s0,.55,0,.71a3.56,3.56,0,0,1-.06.58,1.84,1.84,0,0,1-.17.56,2.32,2.32,0,0,1-.34.45,1.48,1.48,0,0,1-.46.34,1.67,1.67,0,0,1-.56.18l-.5.06h-1.53Zm.64.61v4.57h.3l.65,0a2.06,2.06,0,0,0,.5-.11,1.24,1.24,0,0,0,.49-.28,1.18,1.18,0,0,0,.29-.5,2,2,0,0,0,.11-.55c0-.16,0-.44,0-.83s0-.66,0-.82a1.85,1.85,0,0,0-.11-.55,1.24,1.24,0,0,0-.29-.5,1.13,1.13,0,0,0-.49-.28,1.42,1.42,0,0,0-.5-.11l-.65,0Zm0,0" transform="translate(-164.1 -372.05)"/><path class="cls-8" d="M385.47,464h3.2v.61h-2.56v1.89h2.05v.61h-2.05v2.07h2.56v.6h-3.2Zm0,0" transform="translate(-164.1 -372.05)"/><path class="cls-8" d="M391.64,464h.64v5.18h2.39v.6h-3Zm0,0" transform="translate(-164.1 -372.05)"/><path class="cls-8" d="M397.57,467.37h1.83v.5h-1.83Zm0,0" transform="translate(-164.1 -372.05)"/><path class="cls-8" d="M403.13,464.62V467h.52l.59,0a1.64,1.64,0,0,0,.41-.08.78.78,0,0,0,.37-.22,1.09,1.09,0,0,0,.35-.86,1.12,1.12,0,0,0-.35-.87,1,1,0,0,0-.51-.25,5.88,5.88,0,0,0-.86-.05Zm-.64-.61h1.16l.69,0a2.47,2.47,0,0,1,.56.12,1.94,1.94,0,0,1,.58.33,1.77,1.77,0,0,1,.53,1.31,1.75,1.75,0,0,1-.27,1,1.51,1.51,0,0,1-.67.61l1,2.42h-.69l-.94-2.25a4.61,4.61,0,0,1-.81,0h-.52v2.23h-.64Zm0,0" transform="translate(-164.1 -372.05)"/><path class="cls-8" d="M408.92,464h3.2v.61h-2.56v1.89h2.05v.61h-2.05v2.07h2.56v.6h-3.2Zm0,0" transform="translate(-164.1 -372.05)"/><path class="cls-8" d="M415.73,464v5.78h-.65V464Zm0,0" transform="translate(-164.1 -372.05)"/><path class="cls-1" d="M407,408.18h3.28q4.61,0,6.89-1.81a6.37,6.37,0,0,0,2.3-5.31c0-2.35-.64-4.07-1.92-5.19s-3.27-1.69-6-1.69H407Zm22.56-7.48q0,7.6-4.76,11.64t-13.52,4H407v16.77H397V386h15q8.57,0,13,3.69T429.52,400.7Zm0,0" transform="translate(-164.1 -372.05)"/><path class="cls-2" d="M405.1,406.32h3.28c3.07,0,5.36-.61,6.89-1.82a6.39,6.39,0,0,0,2.29-5.31q0-3.51-1.92-5.19t-6-1.68H405.1Zm22.56-7.49c0,5.08-1.59,8.95-4.77,11.64s-7.67,4-13.51,4H405.1v16.76h-10V384.14h15.05q8.55,0,13,3.69T427.66,398.83Zm0,0" transform="translate(-164.1 -372.05)"/><path class="cls-9" d="M232.58,408A31.19,31.19,0,1,1,201.4,376.6,31.32,31.32,0,0,1,232.58,408Z" transform="translate(-164.1 -372.05)"/><path class="cls-10" d="M203.49,387.39l.55.07.72.38.64.46.52.91.22.46.21.41.06.57-.08.48-.09.43-.18.59-.12.57.16.61.1.4.33.24.11.2.06.31.07.9-.08.57-.21.7-.24.49-.14.71.05.56.17,1.15v1l0,1-.17.82-.12,1.19,0,.79.1,1.15.15.61.84.69,1.4.56.79.79.92,1.36.6,1,.54.94.59,1,.17.53v.44l-.36.79,0,.84-.4,1-.83.74-.29.61,0,1.09.21.81.53.72.27.25h.43l.28-.32.16-.15-.13-.18-.06-.19.19-.05.25.07.13.17.26.16h.55l.22.26.32.23.3.09.32.11.15.26v.63l.39.29.46.27,1.22.11.51.21.31.33.24.17h1.09l.28-.15.24.05h.49l.22.17h.55l.46.31.51.23.34.25v.32l-.12.31.05.55-.06.51.26.35.2.32.27.69v1.14l.19.32.18-.08.08-.29.18-.2v-1.92l.11-.32.11.06v2.34l-.15.11,0,.21,0,.38.17.38-.08.31-.22.18-.17.17-.33.2-.24.46,0,.26-.12.34L222,431l-1.1,1-.71.55h-.77l-.21.17-.1.21a1.66,1.66,0,0,1-.13.32,2.54,2.54,0,0,1-1.06,1.07,33.87,33.87,0,0,1-4.58,2.48,25.91,25.91,0,0,1-2.81.87l-.18-.31-.05-.22-.77,0-.2-.13-.17-.09h-.7l-.17-.23-.07-.2-.11-.26-.34-.05-.28.27-.3.32-.32.14-.37.24-.32.25-.18.28,0,.31-.26.38h-1.48l-.19-.18-.25-.1-.26-.08-.61-.05-.23.26-.18.07-.51-.11.17-.17.21,0,.23,0,0-.08-.14-.07h-.29l-.22.07-.41-.09v-.11l-.25-.1h-.56l-.25-.46-.26-.09-.42-.19.08-.06h.31l.27,0,.17-.06.14-.17.24,0,.62-.05H203l.59,0,.2-.19v-.15l-.33,0-.4,0-.49,0v-.09l.16-.12.23-.15.05-.09-.09-.06h-.35l-.2-.18,0-.16.06-.13.14-.13.21-.07.21,0,.23,0,.28.15.32,0,.14-.17.41-.07.2,0,.35-.11.35-.06.21-.09.09-.24.11-.16.13-.1h.64l.12-.06v-.13l.29-.13.23-.16.14-.26.22-.06.22,0,0-.26.16-.1.06.07.19-.13.11-.13v-.27l.16-.48.25-.22.46-.15.52-.29.37-.11.34-.3.38-.29.21-.25,0-.15.14-.43,0-.35-.21-.19,0-.41v-.31l0-.32.12-.28.27-.09.29.16.26.38.11.21s0,.35,0,.4,0,.33,0,.33l0,.21.43.1.88,0,1.33-.12.33-.2.28-.18h.47l.31-.09.2-.12.37-.11.38,0,.26-.13.17-.17.43-.31.52-.54.07-.3.14-.22a1.3,1.3,0,0,0,.19-.17l.1-.45.07-.38.18-.56V425l-.07-.3-.07-.33-.17-.16-.35-.32-.2-.2-.34.05-.21.07-.45.15-.28.12-.4.33-.18.14h-.18l-.11.16,0,.32,0,.19-.21.19-.43,0-.19.16-.36,0h-.24l.11-.12.1-.14.12-.13.08-.24.19-.26.19-.19.05-.26.21-.22.13-.17,0-.2-.09-.21-.16-.27-.22-.13-.43-.07-.15,0-.15.1-.29.17h-.75l-.27-.09,0-.25.17-.29.17-.38,0-.25v-.38l.05-.15v-.21l-.09-.25v-.43l0-.13-.16-.2-.28-.18-.34-.1-.25,0-.23.16-.18.16-.29.27-.09.16-.33,0-.13-.16-.13-.14-.14-.13-.28,0-.06-.19,0-.15-.19-.05h-.23l-.11.09-.08.42-.35.12,0,.25-.2.2-.19.13-.11.21-.54.22-.3,0-.42,0-.09.23a2.47,2.47,0,0,1-.23.28l-.4.05.09-.25.14-.21v-.27l-.28,0-.12.21-.13.17-.1.15,0,.15-.21.12-.24-.16-.1-.21-.3-.09-.18-.26-.1-.16-.22-.15-.5-.08-.64.09h-.62l-.33.13-.69,0-.24-.25-.23-.2-.3-.07-.09-.31-.23-.27-.39.06-.35-.31-.27-.22-.15-.25-.17-.12-.48-.16-.23-.17h-1.19l-.48-.25-.38-.17-.58-.26-.19-.27-.25-.2-.23-.25-.11-.35v-.51l-.17-.23v-.12l.26-.15.1-.18-.36-.1-.29-.06-.28-.15-.31-.06-.06-.22v-.12l.26-.13.2-.16.19-.43v-.15L195,415l-.22.27-.16.08-.08.15-.29.05-.35-.14-.37-.14-.26-.07-.19-.2-.12-.2-.16-.26-.07-.16h-.7l-.68-.09-.29-.17-.7-.05-.21-.21-.22-.24-.25-.22-.27-.25-.37-.27-.22-.23-.72-.07-.12-.67v-.61l.1-.38.24-.32.25-.28.18-.22.3-.31.24-.25.42-.24.2-.33.13-.18.32-.22.07-.2,0-.52,0-.86,0-.41a2.16,2.16,0,0,1,.08-.38l.17-.28.11-.3.19-.39.3-.71.13-.24.3-.23.17-.23.3-.19a1.33,1.33,0,0,1,.28-.15l.34,0h.44l.31-.21.32-.14.53-.1.52-.19.49-.42.23-.32v-.36l.05-.84.24-.18.25-.22.13-.33.09-.2.25-.19.26-.19.16-.22.25-.34.13-.34.16-.21.32-.49.54-.41.25-.1.56,0,.27.23.36.09.44,0v-.15l-.15-.25-.29-.3-.13-.44s-.05-.38-.05-.43a3,3,0,0,1,.2-.4l.4-.19.37-.14.38-.17.65,0,.28-.2,0-.35,0-.33.22-.16.41.1.17,0,.14-.06.12-.13.1-.2-.26-.51a1.67,1.67,0,0,1,0-.23l.09-.49a3.06,3.06,0,0,1,.2-.3c0-.06.28-.27.28-.27l.17-.18v-.42l-.08-.3-.21-.07-.12-.27.14-.25.25-.24.28-.27.14-.26.08-.53-.09-.39-.2-.2-.06-.18-.2-.16-.26-.21-.22-.11-.18-.58Z" transform="translate(-164.1 -372.05)"/><path class="cls-10" d="M206.74,424.82l-.31.25s-.14.07-.14.12v.27l.11.29.12.18.22.11h.37l.12-.29.11-.12v-.2l-.05-.2V425l-.14-.15-.16-.12h-.17Z" transform="translate(-164.1 -372.05)"/><path class="cls-10" d="M208.73,425.64a.91.91,0,0,0,.26.22c.14.08.17.05.25.12s.07.16.17.29a.86.86,0,0,0,.26.2,1.29,1.29,0,0,0,.45.14c.34.07.52.11.64.12a1.82,1.82,0,0,0,.41,0l.3,0c.25,0,.28,0,.38,0a.72.72,0,0,0,.25-.18c.11-.1.11-.14.2-.2s.12,0,.24-.11.08-.09.21-.19.16-.1.15-.14-.13-.08-.17-.09a.77.77,0,0,0-.48,0c-.1,0-.1.05-.25.11l-.26.08a1.85,1.85,0,0,1-.38.07l-.28,0a2.27,2.27,0,0,1-.43-.07,1.35,1.35,0,0,1-.5-.26,2.84,2.84,0,0,0-.29-.21l-.15-.1c-.21-.12-.27-.07-.38-.16s-.08-.15-.18-.19a.42.42,0,0,0-.24,0,.36.36,0,0,0-.15.06.32.32,0,0,0-.11.12.38.38,0,0,0,0,.18A.45.45,0,0,0,208.73,425.64Z" transform="translate(-164.1 -372.05)"/><path class="cls-11" d="M199.5,435.7a.82.82,0,0,0-.34-.16.64.64,0,0,0-.28.06c-.12,0-.33.11-.33.21s.08.11.15.15l.2.1c.08.05.08.07.15.12a.77.77,0,0,0,.4.1H200l.16,0a1.2,1.2,0,0,0,.23-.11.9.9,0,0,0,.16-.12c.06-.06.09-.09.08-.13s-.26-.14-.27-.15h-.2l-.22.07a.62.62,0,0,1-.25,0C199.63,435.82,199.62,435.79,199.5,435.7Z" transform="translate(-164.1 -372.05)"/><path class="cls-11" d="M203,438.64l-.2.1h-.31l-.12.16.1.08h.14l.33.07h.83s.29,0,.32,0a1.55,1.55,0,0,0,.37-.06,1.13,1.13,0,0,1,.2-.09l.08-.06.09-.09v-.12h-1.16l-.32-.07h-.11Z" transform="translate(-164.1 -372.05)"/><line class="cls-12" x1="25.21" y1="64.88" x2="24.95" y2="64.88"/><path class="cls-11" d="M199,439.27v-.35l-.23-.22-.23-.2-.17-.1-.71-.1-.38-.13h-.22l-.44.16,0,.3h-.48l-.38-.05-.75-.12-1-.18-.28-.12-.42-.22-.2.05-.42-.1-.45-.06-.4-.17h-.55l-.81-.48-1-.27h-.23l-.08,0a30.76,30.76,0,0,0,9.78,2.44Z" transform="translate(-164.1 -372.05)"/><polygon class="cls-10" points="17.57 60.35 17.77 60.14 17.94 60.14 18.2 60.05 18.43 59.79 18.43 59.62 18.33 59.3 17.57 58.74 17.3 58.36 16.81 58.05 16.6 57.98 16.32 57.98 16.18 58.19 16.09 58.39 16.09 58.6 16.33 58.78 16.47 59.16 16.45 59.38 17.57 60.35"/><path class="cls-10" d="M174.94,391.58a31.66,31.66,0,0,0,2.58,36.54l.14,0,.21,0,.43.4.47.35.69.14.43-.12.3-.46.28-.31v-.68l.1-.2.21-.22.28-.88.09-.71v-.72l-.31-.44-.28-.83-.18-1,0-1.67-.29-.46-.42-.52-.56-.54-.26-.65-.35-.42-.42-.66-.26-.49-.4-.52-.43-.64-.36-.35-1.22-.22-.76-.21H174l-.82-.21-.46-.33-.12-.79-.4-.16-.23-.33-.12-1v-2l-.18-.6-.1-1.34v-2.76a6.28,6.28,0,0,1,.16-.95,7.57,7.57,0,0,0,.28-.78l.4-1.43.28-.9.35-.76.07-1.1.07-.79.14-.89.5-.82.14-.68L174,396l.23-.52c0-.06.14-.58.14-.58s.12-.4.14-.45.26-.44.28-.51a1.23,1.23,0,0,1,.17-.35l.4-.58.18-.43a2.12,2.12,0,0,0,.19-.42,1.29,1.29,0,0,0-.16-.35l-.24-.25-.24-.07-.11-.07Z" transform="translate(-164.1 -372.05)"/><path class="cls-11" d="M205.69,376.89v.17l.39.25.32.17.38.3.27.13.42.12.2.3.37.2.37.22.4.27.35.27-.13.55-.22.27-.55.18a4.52,4.52,0,0,1-.81-.05,3.5,3.5,0,0,0-.62-.18l-.25.23,0,.12H207l.48.17v.15l-.2.25-.9.15-3,.1-.24.1.12.17.27.18.13.19v.32c0,.1-.18.28-.18.28l-.54-.1h-.37v.87l-.4.39-.74.62-.5.37h-.4l.05-.24.35-.43.12-.17.11-.52.27-.47.1-.42v-.55l-.23-.62-.32-.34-.25-.2-.59-.42-.72-.27h-.92l-1,.19h-.94l-.89.27-.4.25-1,.3-1.51.22-1-.15-.1-.15-.42-.29-.42-.2-.28-.62v-.6h-.12l-.34-.44,2.16-.73,1.31-.38,1-.25,1.22-.26.83-.14,1-.14,1-.11,1.18-.09,1.33,0,2.23,0,1.25.1Z" transform="translate(-164.1 -372.05)"/><path class="cls-12" d="M201.9,439.49l-.79-62.89c-1.57.76-18.64,9.45-21.61,28.93-2.48,16.24,6.64,28,8.21,30l.91,1.17" transform="translate(-164.1 -372.05)"/><path class="cls-12" d="M201,376.6c1.57.76,18.63,9.45,21.61,28.93,2.48,16.24-6.64,28-8.21,30l-.91,1.17" transform="translate(-164.1 -372.05)"/><path class="cls-12" d="M179.12,385.85" transform="translate(-164.1 -372.05)"/><path class="cls-12" d="M178.42,386.47a40.58,40.58,0,0,0,12,5.45c16.16,4.31,30.08-3,34.1-5.31" transform="translate(-164.1 -372.05)"/><path class="cls-12" d="M170.6,402a84.39,84.39,0,0,0,30.88,6.15c6.91.05,16.08.38,26.42-4.06,1.68-.72,3-1.42,4-1.92" transform="translate(-164.1 -372.05)"/><path class="cls-12" d="M172.1,419.28a86.41,86.41,0,0,0,16.35,3.77,90.86,90.86,0,0,0,42.45-4.82" transform="translate(-164.1 -372.05)"/><path class="cls-12" d="M189.23,437a30.86,30.86,0,0,1-7.54-4.64" transform="translate(-164.1 -372.05)"/></svg>